<mxfile host="Electron" modified="2023-09-23T05:58:09.321Z" agent="Mozilla/5.0 (Macintosh; Intel Mac OS X 10_15_7) AppleWebKit/537.36 (KHTML, like Gecko) draw.io/21.7.5 Chrome/114.0.5735.289 Electron/25.8.1 Safari/537.36" etag="HNWeVDpSM7CD1ze9bPNw" version="21.7.5" type="device">
  <diagram name="PÃ¡gina-1" id="hw6YbVu_IpaQcz2jU82p">
    <mxGraphModel dx="1811" dy="1892" grid="1" gridSize="10" guides="1" tooltips="1" connect="1" arrows="1" fold="1" page="1" pageScale="1" pageWidth="827" pageHeight="1169" math="0" shadow="0">
      <root>
        <mxCell id="0" />
        <mxCell id="1" parent="0" />
        <mxCell id="cc5oqjslnrZ3DRCShtl0-1" value="&lt;font style=&quot;font-size: 16px;&quot;&gt;&lt;span&gt;Trabajador&lt;/span&gt;&lt;/font&gt;" style="whiteSpace=wrap;html=1;align=center;strokeWidth=2;fontStyle=1" parent="1" vertex="1">
          <mxGeometry x="130" y="160" width="100" height="40" as="geometry" />
        </mxCell>
        <mxCell id="TdeLC3_kOeJKwItWiQyu-23" style="rounded=0;orthogonalLoop=1;jettySize=auto;html=1;exitX=0;exitY=0.5;exitDx=0;exitDy=0;entryX=1;entryY=0.5;entryDx=0;entryDy=0;endArrow=none;endFill=0;" parent="1" source="cc5oqjslnrZ3DRCShtl0-2" target="cc5oqjslnrZ3DRCShtl0-1" edge="1">
          <mxGeometry relative="1" as="geometry" />
        </mxCell>
        <mxCell id="cc5oqjslnrZ3DRCShtl0-2" value="&lt;font style=&quot;font-size: 16px;&quot;&gt;&lt;b&gt;&lt;u&gt;RFC&lt;/u&gt;&lt;/b&gt;&lt;/font&gt;" style="ellipse;whiteSpace=wrap;html=1;align=center;strokeWidth=2;" parent="1" vertex="1">
          <mxGeometry x="280" y="170" width="100" height="40" as="geometry" />
        </mxCell>
        <mxCell id="cc5oqjslnrZ3DRCShtl0-7" value="&lt;font style=&quot;font-size: 16px;&quot;&gt;&lt;b&gt;Direccion&lt;/b&gt;&lt;/font&gt;" style="ellipse;whiteSpace=wrap;html=1;align=center;strokeWidth=2;" parent="1" vertex="1">
          <mxGeometry x="-184.1" y="130" width="100" height="40" as="geometry" />
        </mxCell>
        <mxCell id="cc5oqjslnrZ3DRCShtl0-8" value="&lt;font style=&quot;font-size: 16px;&quot;&gt;&lt;b&gt;Calle&lt;br&gt;&lt;/b&gt;&lt;/font&gt;" style="ellipse;whiteSpace=wrap;html=1;align=center;strokeWidth=2;" parent="1" vertex="1">
          <mxGeometry x="-304.1" y="160" width="100" height="40" as="geometry" />
        </mxCell>
        <mxCell id="cc5oqjslnrZ3DRCShtl0-9" value="&lt;font style=&quot;font-size: 16px;&quot;&gt;&lt;b&gt;Calle&lt;/b&gt;&lt;/font&gt;" style="ellipse;whiteSpace=wrap;html=1;align=center;strokeWidth=2;" parent="1" vertex="1">
          <mxGeometry x="-84.1" y="110" width="100" height="40" as="geometry" />
        </mxCell>
        <mxCell id="cc5oqjslnrZ3DRCShtl0-10" value="&lt;font style=&quot;font-size: 16px;&quot;&gt;&lt;b&gt;Num_Int&lt;br&gt;&lt;/b&gt;&lt;/font&gt;" style="ellipse;whiteSpace=wrap;html=1;align=center;strokeWidth=2;" parent="1" vertex="1">
          <mxGeometry x="-164.1" y="20" width="100" height="40" as="geometry" />
        </mxCell>
        <mxCell id="cc5oqjslnrZ3DRCShtl0-11" value="&lt;font style=&quot;font-size: 16px;&quot;&gt;&lt;b&gt;Num_Ext&lt;/b&gt;&lt;/font&gt;" style="ellipse;whiteSpace=wrap;html=1;align=center;strokeWidth=2;" parent="1" vertex="1">
          <mxGeometry x="-234.1" y="60" width="100" height="40" as="geometry" />
        </mxCell>
        <mxCell id="cc5oqjslnrZ3DRCShtl0-12" value="&lt;font style=&quot;font-size: 16px;&quot;&gt;&lt;b&gt;Colonia&lt;/b&gt;&lt;/font&gt;" style="ellipse;whiteSpace=wrap;html=1;align=center;strokeWidth=2;" parent="1" vertex="1">
          <mxGeometry x="-284.1" y="100" width="100" height="40" as="geometry" />
        </mxCell>
        <mxCell id="cc5oqjslnrZ3DRCShtl0-13" value="&lt;font style=&quot;font-size: 16px;&quot;&gt;&lt;b&gt;Estado&lt;/b&gt;&lt;/font&gt;" style="ellipse;whiteSpace=wrap;html=1;align=center;strokeWidth=2;" parent="1" vertex="1">
          <mxGeometry x="-94.1" y="60" width="100" height="40" as="geometry" />
        </mxCell>
        <mxCell id="cc5oqjslnrZ3DRCShtl0-15" value="&lt;font style=&quot;font-size: 16px;&quot;&gt;&lt;b&gt;FechaIn_Con&lt;/b&gt;&lt;/font&gt;" style="ellipse;whiteSpace=wrap;html=1;align=center;strokeWidth=2;" parent="1" vertex="1">
          <mxGeometry x="-50" y="230" width="120" height="40" as="geometry" />
        </mxCell>
        <mxCell id="cc5oqjslnrZ3DRCShtl0-16" value="&lt;font style=&quot;font-size: 16px;&quot;&gt;&lt;b&gt;FechaFin_Con&lt;/b&gt;&lt;/font&gt;" style="ellipse;whiteSpace=wrap;html=1;align=center;strokeWidth=2;" parent="1" vertex="1">
          <mxGeometry x="235.9" y="260" width="120" height="40" as="geometry" />
        </mxCell>
        <mxCell id="cc5oqjslnrZ3DRCShtl0-25" value="" style="endArrow=none;html=1;rounded=0;entryX=0.5;entryY=1;entryDx=0;entryDy=0;strokeWidth=2;exitX=0;exitY=0.5;exitDx=0;exitDy=0;" parent="1" source="cc5oqjslnrZ3DRCShtl0-1" target="cc5oqjslnrZ3DRCShtl0-7" edge="1">
          <mxGeometry relative="1" as="geometry">
            <mxPoint x="105.9" y="210" as="sourcePoint" />
            <mxPoint x="465.9" y="310" as="targetPoint" />
          </mxGeometry>
        </mxCell>
        <mxCell id="cc5oqjslnrZ3DRCShtl0-26" value="" style="endArrow=none;html=1;rounded=0;exitX=0.95;exitY=0.238;exitDx=0;exitDy=0;entryX=0.09;entryY=0.763;entryDx=0;entryDy=0;entryPerimeter=0;strokeWidth=2;exitPerimeter=0;" parent="1" source="cc5oqjslnrZ3DRCShtl0-7" target="cc5oqjslnrZ3DRCShtl0-9" edge="1">
          <mxGeometry relative="1" as="geometry">
            <mxPoint x="-4.100000000000001" y="310" as="sourcePoint" />
            <mxPoint x="155.9" y="310" as="targetPoint" />
          </mxGeometry>
        </mxCell>
        <mxCell id="cc5oqjslnrZ3DRCShtl0-27" value="" style="endArrow=none;html=1;rounded=0;exitX=0.75;exitY=0.063;exitDx=0;exitDy=0;entryX=0.26;entryY=0.938;entryDx=0;entryDy=0;entryPerimeter=0;strokeWidth=2;exitPerimeter=0;" parent="1" source="cc5oqjslnrZ3DRCShtl0-7" target="cc5oqjslnrZ3DRCShtl0-13" edge="1">
          <mxGeometry relative="1" as="geometry">
            <mxPoint x="-144.1" y="220" as="sourcePoint" />
            <mxPoint x="-142.1" y="189" as="targetPoint" />
          </mxGeometry>
        </mxCell>
        <mxCell id="cc5oqjslnrZ3DRCShtl0-28" value="" style="endArrow=none;html=1;rounded=0;entryX=0.5;entryY=1;entryDx=0;entryDy=0;strokeWidth=2;" parent="1" target="cc5oqjslnrZ3DRCShtl0-10" edge="1">
          <mxGeometry relative="1" as="geometry">
            <mxPoint x="-134.1" y="140" as="sourcePoint" />
            <mxPoint x="-132.1" y="199" as="targetPoint" />
          </mxGeometry>
        </mxCell>
        <mxCell id="cc5oqjslnrZ3DRCShtl0-30" value="" style="endArrow=none;html=1;rounded=0;exitX=0.38;exitY=0.013;exitDx=0;exitDy=0;entryX=0.68;entryY=0.963;entryDx=0;entryDy=0;entryPerimeter=0;strokeWidth=2;exitPerimeter=0;" parent="1" source="cc5oqjslnrZ3DRCShtl0-7" target="cc5oqjslnrZ3DRCShtl0-11" edge="1">
          <mxGeometry relative="1" as="geometry">
            <mxPoint x="-124.1" y="240" as="sourcePoint" />
            <mxPoint x="-122.1" y="209" as="targetPoint" />
          </mxGeometry>
        </mxCell>
        <mxCell id="cc5oqjslnrZ3DRCShtl0-31" value="" style="endArrow=none;html=1;rounded=0;exitX=0;exitY=0;exitDx=0;exitDy=0;entryX=1;entryY=1;entryDx=0;entryDy=0;strokeWidth=2;" parent="1" source="cc5oqjslnrZ3DRCShtl0-7" target="cc5oqjslnrZ3DRCShtl0-12" edge="1">
          <mxGeometry relative="1" as="geometry">
            <mxPoint x="-114.1" y="250" as="sourcePoint" />
            <mxPoint x="-112.1" y="219" as="targetPoint" />
          </mxGeometry>
        </mxCell>
        <mxCell id="cc5oqjslnrZ3DRCShtl0-32" value="" style="endArrow=none;html=1;rounded=0;exitX=0;exitY=1;exitDx=0;exitDy=0;entryX=1;entryY=0.5;entryDx=0;entryDy=0;strokeWidth=2;" parent="1" source="cc5oqjslnrZ3DRCShtl0-7" target="cc5oqjslnrZ3DRCShtl0-8" edge="1">
          <mxGeometry relative="1" as="geometry">
            <mxPoint x="-104.1" y="260" as="sourcePoint" />
            <mxPoint x="-102.1" y="229" as="targetPoint" />
          </mxGeometry>
        </mxCell>
        <mxCell id="cc5oqjslnrZ3DRCShtl0-37" value="" style="endArrow=none;html=1;rounded=0;exitX=0.5;exitY=0;exitDx=0;exitDy=0;entryX=0.16;entryY=0.988;entryDx=0;entryDy=0;strokeWidth=2;entryPerimeter=0;" parent="1" source="cc5oqjslnrZ3DRCShtl0-15" target="cc5oqjslnrZ3DRCShtl0-1" edge="1">
          <mxGeometry relative="1" as="geometry">
            <mxPoint x="110" y="190" as="sourcePoint" />
            <mxPoint x="140" y="190" as="targetPoint" />
          </mxGeometry>
        </mxCell>
        <mxCell id="cc5oqjslnrZ3DRCShtl0-40" value="" style="endArrow=none;html=1;rounded=0;exitX=0;exitY=0;exitDx=0;exitDy=0;entryX=1;entryY=0.5;entryDx=0;entryDy=0;strokeWidth=2;elbow=vertical;" parent="1" source="cc5oqjslnrZ3DRCShtl0-16" target="cc5oqjslnrZ3DRCShtl0-1" edge="1">
          <mxGeometry relative="1" as="geometry">
            <mxPoint x="130" y="210" as="sourcePoint" />
            <mxPoint x="160" y="210" as="targetPoint" />
          </mxGeometry>
        </mxCell>
        <mxCell id="cc5oqjslnrZ3DRCShtl0-49" value="" style="triangle;whiteSpace=wrap;html=1;shadow=0;strokeColor=default;strokeWidth=2;fontFamily=Helvetica;fontSize=12;fontColor=default;fillColor=default;rotation=90;" parent="1" vertex="1">
          <mxGeometry x="140" y="430" width="60" height="80" as="geometry" />
        </mxCell>
        <mxCell id="cc5oqjslnrZ3DRCShtl0-50" value="" style="endArrow=none;html=1;rounded=0;fontFamily=Helvetica;fontSize=12;fontColor=default;strokeWidth=2;shape=link;" parent="1" edge="1">
          <mxGeometry width="50" height="50" relative="1" as="geometry">
            <mxPoint x="170" y="440" as="sourcePoint" />
            <mxPoint x="170" y="200" as="targetPoint" />
          </mxGeometry>
        </mxCell>
        <mxCell id="cc5oqjslnrZ3DRCShtl0-51" value="&lt;font style=&quot;font-size: 16px;&quot;&gt;&lt;b&gt;Veterinario&lt;br&gt;&lt;/b&gt;&lt;/font&gt;" style="whiteSpace=wrap;html=1;align=center;strokeWidth=2;" parent="1" vertex="1">
          <mxGeometry x="-220" y="550" width="100" height="40" as="geometry" />
        </mxCell>
        <mxCell id="cc5oqjslnrZ3DRCShtl0-52" value="&lt;font style=&quot;font-size: 16px;&quot;&gt;&lt;b&gt;Cuidador&lt;/b&gt;&lt;/font&gt;" style="whiteSpace=wrap;html=1;align=center;strokeWidth=2;" parent="1" vertex="1">
          <mxGeometry x="120" y="550" width="100" height="40" as="geometry" />
        </mxCell>
        <mxCell id="CCVpfl_Kz8rF-1x_p7pF-2" style="edgeStyle=orthogonalEdgeStyle;rounded=0;orthogonalLoop=1;jettySize=auto;html=1;exitX=0;exitY=0.5;exitDx=0;exitDy=0;entryX=0.5;entryY=1;entryDx=0;entryDy=0;" parent="1" source="CCVpfl_Kz8rF-1x_p7pF-1" target="cc5oqjslnrZ3DRCShtl0-53" edge="1">
          <mxGeometry relative="1" as="geometry" />
        </mxCell>
        <mxCell id="cc5oqjslnrZ3DRCShtl0-53" value="&lt;font style=&quot;font-size: 16px;&quot;&gt;&lt;b&gt;Proveedor&lt;/b&gt;&lt;/font&gt;" style="whiteSpace=wrap;html=1;align=center;strokeWidth=2;" parent="1" vertex="1">
          <mxGeometry x="450" y="550" width="100" height="40" as="geometry" />
        </mxCell>
        <mxCell id="cc5oqjslnrZ3DRCShtl0-54" value="" style="endArrow=none;html=1;rounded=0;exitX=0.5;exitY=0;exitDx=0;exitDy=0;entryX=0.5;entryY=1;entryDx=0;entryDy=0;strokeWidth=2;" parent="1" source="cc5oqjslnrZ3DRCShtl0-51" edge="1">
          <mxGeometry relative="1" as="geometry">
            <mxPoint x="70" y="470" as="sourcePoint" />
            <mxPoint x="150" y="470" as="targetPoint" />
          </mxGeometry>
        </mxCell>
        <mxCell id="cc5oqjslnrZ3DRCShtl0-55" value="" style="endArrow=none;html=1;rounded=0;exitX=0.5;exitY=0;exitDx=0;exitDy=0;entryX=1;entryY=0.5;entryDx=0;entryDy=0;strokeWidth=2;" parent="1" source="cc5oqjslnrZ3DRCShtl0-52" edge="1">
          <mxGeometry relative="1" as="geometry">
            <mxPoint x="30" y="560" as="sourcePoint" />
            <mxPoint x="170" y="500" as="targetPoint" />
          </mxGeometry>
        </mxCell>
        <mxCell id="cc5oqjslnrZ3DRCShtl0-56" value="" style="endArrow=none;html=1;rounded=0;exitX=0.5;exitY=0;exitDx=0;exitDy=0;entryX=0.5;entryY=0;entryDx=0;entryDy=0;strokeWidth=2;" parent="1" source="cc5oqjslnrZ3DRCShtl0-53" edge="1">
          <mxGeometry relative="1" as="geometry">
            <mxPoint x="180" y="560" as="sourcePoint" />
            <mxPoint x="190" y="470" as="targetPoint" />
          </mxGeometry>
        </mxCell>
        <mxCell id="cc5oqjslnrZ3DRCShtl0-58" value="&lt;font style=&quot;font-size: 16px;&quot;&gt;&lt;b&gt;d&lt;/b&gt;&lt;/font&gt;" style="text;html=1;strokeColor=none;fillColor=none;align=center;verticalAlign=middle;whiteSpace=wrap;rounded=0;fontSize=12;fontFamily=Helvetica;fontColor=default;" parent="1" vertex="1">
          <mxGeometry x="140" y="450" width="60" height="30" as="geometry" />
        </mxCell>
        <mxCell id="cc5oqjslnrZ3DRCShtl0-60" value="&lt;font style=&quot;font-size: 16px;&quot;&gt;&lt;b&gt;Salario&lt;br&gt;&lt;/b&gt;&lt;/font&gt;" style="ellipse;whiteSpace=wrap;html=1;align=center;strokeWidth=2;dashed=1;" parent="1" vertex="1">
          <mxGeometry x="-370" y="480" width="120" height="40" as="geometry" />
        </mxCell>
        <mxCell id="cc5oqjslnrZ3DRCShtl0-61" value="&lt;font style=&quot;font-size: 16px;&quot;&gt;&lt;b&gt;Animal_Enc&lt;/b&gt;&lt;/font&gt;" style="ellipse;whiteSpace=wrap;html=1;align=center;strokeWidth=2;" parent="1" vertex="1">
          <mxGeometry x="-40" y="520" width="120" height="40" as="geometry" />
        </mxCell>
        <mxCell id="cc5oqjslnrZ3DRCShtl0-62" value="&lt;font style=&quot;font-size: 16px;&quot;&gt;&lt;b&gt;Dias_Trab&lt;/b&gt;&lt;/font&gt;" style="ellipse;whiteSpace=wrap;html=1;align=center;strokeWidth=2;" parent="1" vertex="1">
          <mxGeometry x="270" y="530" width="120" height="40" as="geometry" />
        </mxCell>
        <mxCell id="cc5oqjslnrZ3DRCShtl0-63" value="&lt;font style=&quot;font-size: 16px;&quot;&gt;&lt;b&gt;Horario_Lab&lt;/b&gt;&lt;/font&gt;" style="ellipse;whiteSpace=wrap;html=1;align=center;strokeWidth=2;" parent="1" vertex="1">
          <mxGeometry x="-70" y="570" width="120" height="40" as="geometry" />
        </mxCell>
        <mxCell id="cc5oqjslnrZ3DRCShtl0-64" value="&lt;font style=&quot;font-size: 16px;&quot;&gt;&lt;b&gt;Salario&lt;/b&gt;&lt;/font&gt;" style="ellipse;whiteSpace=wrap;html=1;align=center;strokeWidth=2;dashed=1;" parent="1" vertex="1">
          <mxGeometry x="280" y="585" width="120" height="40" as="geometry" />
        </mxCell>
        <mxCell id="cc5oqjslnrZ3DRCShtl0-65" value="&lt;span style=&quot;font-size: 16px;&quot;&gt;&lt;b&gt;Producto&lt;/b&gt;&lt;/span&gt;" style="ellipse;whiteSpace=wrap;html=1;align=center;strokeWidth=2;" parent="1" vertex="1">
          <mxGeometry x="560" y="510" width="120" height="40" as="geometry" />
        </mxCell>
        <mxCell id="cc5oqjslnrZ3DRCShtl0-66" value="&lt;span style=&quot;font-size: 16px;&quot;&gt;&lt;b&gt;Frecuencia&lt;/b&gt;&lt;/span&gt;" style="ellipse;whiteSpace=wrap;html=1;align=center;strokeWidth=2;" parent="1" vertex="1">
          <mxGeometry x="590" y="565" width="120" height="40" as="geometry" />
        </mxCell>
        <mxCell id="cc5oqjslnrZ3DRCShtl0-67" value="&lt;span style=&quot;font-size: 16px;&quot;&gt;&lt;b&gt;Costo_Serv&lt;/b&gt;&lt;/span&gt;" style="ellipse;whiteSpace=wrap;html=1;align=center;strokeWidth=2;" parent="1" vertex="1">
          <mxGeometry x="530" y="460" width="120" height="40" as="geometry" />
        </mxCell>
        <mxCell id="cc5oqjslnrZ3DRCShtl0-68" value="" style="endArrow=none;html=1;rounded=0;exitX=1;exitY=0.5;exitDx=0;exitDy=0;entryX=0;entryY=0.5;entryDx=0;entryDy=0;strokeWidth=2;" parent="1" target="cc5oqjslnrZ3DRCShtl0-51" edge="1">
          <mxGeometry relative="1" as="geometry">
            <mxPoint x="-240" y="570" as="sourcePoint" />
            <mxPoint x="-50" y="480" as="targetPoint" />
          </mxGeometry>
        </mxCell>
        <mxCell id="cc5oqjslnrZ3DRCShtl0-69" value="" style="endArrow=none;html=1;rounded=0;exitX=0.741;exitY=0.958;exitDx=0;exitDy=0;entryX=0;entryY=0;entryDx=0;entryDy=0;strokeWidth=2;exitPerimeter=0;" parent="1" source="cc5oqjslnrZ3DRCShtl0-60" target="cc5oqjslnrZ3DRCShtl0-51" edge="1">
          <mxGeometry relative="1" as="geometry">
            <mxPoint x="-150" y="570" as="sourcePoint" />
            <mxPoint x="-40" y="490" as="targetPoint" />
          </mxGeometry>
        </mxCell>
        <mxCell id="cc5oqjslnrZ3DRCShtl0-74" value="" style="endArrow=none;html=1;rounded=0;exitX=0;exitY=0;exitDx=0;exitDy=0;entryX=1;entryY=0.75;entryDx=0;entryDy=0;strokeWidth=2;" parent="1" source="cc5oqjslnrZ3DRCShtl0-64" target="cc5oqjslnrZ3DRCShtl0-52" edge="1">
          <mxGeometry relative="1" as="geometry">
            <mxPoint x="110" y="640" as="sourcePoint" />
            <mxPoint x="140" y="610" as="targetPoint" />
          </mxGeometry>
        </mxCell>
        <mxCell id="cc5oqjslnrZ3DRCShtl0-75" value="" style="endArrow=none;html=1;rounded=0;exitX=1;exitY=0;exitDx=0;exitDy=0;entryX=0.067;entryY=0.725;entryDx=0;entryDy=0;strokeWidth=2;entryPerimeter=0;" parent="1" source="cc5oqjslnrZ3DRCShtl0-53" target="cc5oqjslnrZ3DRCShtl0-65" edge="1">
          <mxGeometry relative="1" as="geometry">
            <mxPoint x="310" y="650" as="sourcePoint" />
            <mxPoint x="340" y="620" as="targetPoint" />
          </mxGeometry>
        </mxCell>
        <mxCell id="cc5oqjslnrZ3DRCShtl0-76" value="" style="endArrow=none;html=1;rounded=0;exitX=1;exitY=0.5;exitDx=0;exitDy=0;entryX=0;entryY=0.5;entryDx=0;entryDy=0;strokeWidth=2;" parent="1" source="cc5oqjslnrZ3DRCShtl0-53" target="cc5oqjslnrZ3DRCShtl0-66" edge="1">
          <mxGeometry relative="1" as="geometry">
            <mxPoint x="320" y="660" as="sourcePoint" />
            <mxPoint x="350" y="630" as="targetPoint" />
          </mxGeometry>
        </mxCell>
        <mxCell id="cc5oqjslnrZ3DRCShtl0-77" value="" style="endArrow=none;html=1;rounded=0;exitX=0.311;exitY=0.958;exitDx=0;exitDy=0;entryX=0.75;entryY=0;entryDx=0;entryDy=0;strokeWidth=2;exitPerimeter=0;" parent="1" source="cc5oqjslnrZ3DRCShtl0-67" target="cc5oqjslnrZ3DRCShtl0-53" edge="1">
          <mxGeometry relative="1" as="geometry">
            <mxPoint x="330" y="670" as="sourcePoint" />
            <mxPoint x="360" y="640" as="targetPoint" />
          </mxGeometry>
        </mxCell>
        <mxCell id="cc5oqjslnrZ3DRCShtl0-78" value="&lt;b&gt;&lt;font style=&quot;font-size: 15px;&quot;&gt;Especialidad&lt;/font&gt;&lt;/b&gt;" style="ellipse;shape=doubleEllipse;margin=3;whiteSpace=wrap;html=1;align=center;shadow=0;strokeColor=default;strokeWidth=2;fontFamily=Helvetica;fontSize=12;fontColor=default;fillColor=default;" parent="1" vertex="1">
          <mxGeometry x="-350" y="550" width="110" height="40" as="geometry" />
        </mxCell>
        <mxCell id="cc5oqjslnrZ3DRCShtl0-81" value="&lt;font style=&quot;font-size: 16px;&quot;&gt;&lt;span&gt;Bioma&lt;/span&gt;&lt;/font&gt;" style="whiteSpace=wrap;html=1;align=center;strokeWidth=2;fontStyle=1" parent="1" vertex="1">
          <mxGeometry x="275" y="1063" width="100" height="40" as="geometry" />
        </mxCell>
        <mxCell id="cc5oqjslnrZ3DRCShtl0-82" value="&lt;u&gt;&lt;font style=&quot;font-size: 16px;&quot;&gt;&lt;b&gt;Tipo&lt;/b&gt;&lt;/font&gt;&lt;/u&gt;" style="ellipse;whiteSpace=wrap;html=1;align=center;shadow=0;strokeColor=default;strokeWidth=2;fontFamily=Helvetica;fontSize=12;fontColor=default;fillColor=default;" parent="1" vertex="1">
          <mxGeometry x="470" y="1180" width="100" height="40" as="geometry" />
        </mxCell>
        <mxCell id="cc5oqjslnrZ3DRCShtl0-83" value="&lt;font style=&quot;font-size: 16px;&quot;&gt;&lt;b&gt;Num_Jaulas&lt;/b&gt;&lt;/font&gt;" style="ellipse;whiteSpace=wrap;html=1;align=center;shadow=0;strokeColor=default;strokeWidth=2;fontFamily=Helvetica;fontSize=12;fontColor=default;fillColor=default;" parent="1" vertex="1">
          <mxGeometry x="17.5" y="1180" width="110" height="40" as="geometry" />
        </mxCell>
        <mxCell id="cc5oqjslnrZ3DRCShtl0-84" value="&lt;font style=&quot;font-size: 16px;&quot;&gt;&lt;b&gt;Num_Cuid&lt;/b&gt;&lt;/font&gt;" style="ellipse;whiteSpace=wrap;html=1;align=center;shadow=0;strokeColor=default;strokeWidth=2;fontFamily=Helvetica;fontSize=12;fontColor=default;fillColor=default;" parent="1" vertex="1">
          <mxGeometry x="110" y="1227" width="110" height="40" as="geometry" />
        </mxCell>
        <mxCell id="cc5oqjslnrZ3DRCShtl0-85" value="&lt;font style=&quot;font-size: 16px;&quot;&gt;&lt;b&gt;Num_Vet&lt;br&gt;&lt;/b&gt;&lt;/font&gt;" style="ellipse;whiteSpace=wrap;html=1;align=center;shadow=0;strokeColor=default;strokeWidth=2;fontFamily=Helvetica;fontSize=12;fontColor=default;fillColor=default;" parent="1" vertex="1">
          <mxGeometry x="217.5" y="1190" width="110" height="40" as="geometry" />
        </mxCell>
        <mxCell id="cc5oqjslnrZ3DRCShtl0-86" value="&lt;font style=&quot;font-size: 16px;&quot;&gt;&lt;b&gt;Num_Anim&lt;br&gt;&lt;/b&gt;&lt;/font&gt;" style="ellipse;whiteSpace=wrap;html=1;align=center;shadow=0;strokeColor=default;strokeWidth=2;fontFamily=Helvetica;fontSize=12;fontColor=default;fillColor=default;" parent="1" vertex="1">
          <mxGeometry x="290" y="1237" width="110" height="40" as="geometry" />
        </mxCell>
        <mxCell id="cc5oqjslnrZ3DRCShtl0-87" value="&lt;font style=&quot;font-size: 16px;&quot;&gt;&lt;b&gt;Servicio&lt;br&gt;&lt;/b&gt;&lt;/font&gt;" style="ellipse;whiteSpace=wrap;html=1;align=center;shadow=0;strokeColor=default;strokeWidth=2;fontFamily=Helvetica;fontSize=12;fontColor=default;fillColor=default;" parent="1" vertex="1">
          <mxGeometry x="400" y="1227" width="110" height="40" as="geometry" />
        </mxCell>
        <mxCell id="-d3J0LfeknoKQkhsuHQo-3" value="" style="endArrow=none;html=1;rounded=0;exitX=1;exitY=0.5;exitDx=0;exitDy=0;entryX=0;entryY=0.25;entryDx=0;entryDy=0;" parent="1" source="cc5oqjslnrZ3DRCShtl0-61" target="cc5oqjslnrZ3DRCShtl0-52" edge="1">
          <mxGeometry width="50" height="50" relative="1" as="geometry">
            <mxPoint x="170" y="610" as="sourcePoint" />
            <mxPoint x="430" y="520" as="targetPoint" />
          </mxGeometry>
        </mxCell>
        <mxCell id="-d3J0LfeknoKQkhsuHQo-4" value="" style="endArrow=none;html=1;rounded=0;exitX=1;exitY=0.5;exitDx=0;exitDy=0;entryX=0;entryY=0.5;entryDx=0;entryDy=0;" parent="1" source="cc5oqjslnrZ3DRCShtl0-52" target="cc5oqjslnrZ3DRCShtl0-62" edge="1">
          <mxGeometry width="50" height="50" relative="1" as="geometry">
            <mxPoint x="380" y="570" as="sourcePoint" />
            <mxPoint x="430" y="520" as="targetPoint" />
          </mxGeometry>
        </mxCell>
        <mxCell id="-d3J0LfeknoKQkhsuHQo-5" value="" style="endArrow=none;html=1;rounded=0;entryX=0;entryY=0.75;entryDx=0;entryDy=0;" parent="1" source="cc5oqjslnrZ3DRCShtl0-63" target="cc5oqjslnrZ3DRCShtl0-52" edge="1">
          <mxGeometry width="50" height="50" relative="1" as="geometry">
            <mxPoint x="380" y="570" as="sourcePoint" />
            <mxPoint x="430" y="520" as="targetPoint" />
          </mxGeometry>
        </mxCell>
        <mxCell id="-d3J0LfeknoKQkhsuHQo-9" style="edgeStyle=orthogonalEdgeStyle;rounded=0;orthogonalLoop=1;jettySize=auto;html=1;exitX=0.5;exitY=1;exitDx=0;exitDy=0;entryX=0.5;entryY=0;entryDx=0;entryDy=0;shape=link;" parent="1" source="-d3J0LfeknoKQkhsuHQo-6" target="-d3J0LfeknoKQkhsuHQo-8" edge="1">
          <mxGeometry relative="1" as="geometry" />
        </mxCell>
        <mxCell id="-d3J0LfeknoKQkhsuHQo-6" value="&lt;font style=&quot;font-size: 16px;&quot;&gt;&lt;span&gt;Insumo&lt;/span&gt;&lt;/font&gt;" style="whiteSpace=wrap;html=1;align=center;strokeWidth=2;fontStyle=1" parent="1" vertex="1">
          <mxGeometry x="1040" y="770" width="100" height="40" as="geometry" />
        </mxCell>
        <mxCell id="-d3J0LfeknoKQkhsuHQo-7" value="" style="triangle;whiteSpace=wrap;html=1;shadow=0;strokeColor=default;strokeWidth=2;fontFamily=Helvetica;fontSize=12;fontColor=default;fillColor=default;rotation=90;" parent="1" vertex="1">
          <mxGeometry x="1060" y="880" width="60" height="80" as="geometry" />
        </mxCell>
        <mxCell id="-d3J0LfeknoKQkhsuHQo-8" value="&lt;font style=&quot;font-size: 16px;&quot;&gt;&lt;b&gt;d&lt;/b&gt;&lt;/font&gt;" style="text;html=1;strokeColor=none;fillColor=none;align=center;verticalAlign=middle;whiteSpace=wrap;rounded=0;fontSize=12;fontFamily=Helvetica;fontColor=default;" parent="1" vertex="1">
          <mxGeometry x="1060" y="900" width="60" height="30" as="geometry" />
        </mxCell>
        <mxCell id="-d3J0LfeknoKQkhsuHQo-10" value="&lt;span style=&quot;font-size: 16px;&quot;&gt;Alimento&lt;/span&gt;" style="whiteSpace=wrap;html=1;align=center;strokeWidth=2;fontStyle=1" parent="1" vertex="1">
          <mxGeometry x="860" y="1010" width="100" height="40" as="geometry" />
        </mxCell>
        <mxCell id="-d3J0LfeknoKQkhsuHQo-11" value="&lt;span style=&quot;font-size: 16px;&quot;&gt;Medicina&lt;/span&gt;" style="whiteSpace=wrap;html=1;align=center;strokeWidth=2;fontStyle=1" parent="1" vertex="1">
          <mxGeometry x="1220" y="1010" width="100" height="40" as="geometry" />
        </mxCell>
        <mxCell id="-d3J0LfeknoKQkhsuHQo-12" value="" style="endArrow=none;html=1;rounded=0;entryX=0.25;entryY=1;entryDx=0;entryDy=0;exitX=0.5;exitY=0;exitDx=0;exitDy=0;" parent="1" source="-d3J0LfeknoKQkhsuHQo-10" target="-d3J0LfeknoKQkhsuHQo-8" edge="1">
          <mxGeometry width="50" height="50" relative="1" as="geometry">
            <mxPoint x="980" y="1030" as="sourcePoint" />
            <mxPoint x="1030" y="980" as="targetPoint" />
          </mxGeometry>
        </mxCell>
        <mxCell id="-d3J0LfeknoKQkhsuHQo-13" value="" style="endArrow=none;html=1;rounded=0;exitX=0.75;exitY=1;exitDx=0;exitDy=0;entryX=0.5;entryY=0;entryDx=0;entryDy=0;" parent="1" source="-d3J0LfeknoKQkhsuHQo-8" target="-d3J0LfeknoKQkhsuHQo-11" edge="1">
          <mxGeometry width="50" height="50" relative="1" as="geometry">
            <mxPoint x="920" y="1020" as="sourcePoint" />
            <mxPoint x="1085" y="940" as="targetPoint" />
          </mxGeometry>
        </mxCell>
        <mxCell id="-d3J0LfeknoKQkhsuHQo-14" value="&lt;span style=&quot;font-size: 16px;&quot;&gt;&lt;b&gt;seRefrigera&lt;/b&gt;&lt;/span&gt;" style="ellipse;whiteSpace=wrap;html=1;align=center;strokeWidth=2;" parent="1" vertex="1">
          <mxGeometry x="1080.5" y="605" width="120" height="40" as="geometry" />
        </mxCell>
        <mxCell id="TdeLC3_kOeJKwItWiQyu-46" style="rounded=0;orthogonalLoop=1;jettySize=auto;html=1;exitX=1;exitY=1;exitDx=0;exitDy=0;entryX=0.5;entryY=0;entryDx=0;entryDy=0;endArrow=none;endFill=0;" parent="1" source="-d3J0LfeknoKQkhsuHQo-15" target="-d3J0LfeknoKQkhsuHQo-6" edge="1">
          <mxGeometry relative="1" as="geometry" />
        </mxCell>
        <mxCell id="-d3J0LfeknoKQkhsuHQo-15" value="&lt;span style=&quot;font-size: 16px;&quot;&gt;&lt;b&gt;nombre&lt;/b&gt;&lt;/span&gt;" style="ellipse;whiteSpace=wrap;html=1;align=center;strokeWidth=2;" parent="1" vertex="1">
          <mxGeometry x="940.5" y="620" width="120" height="40" as="geometry" />
        </mxCell>
        <mxCell id="TdeLC3_kOeJKwItWiQyu-47" style="rounded=0;orthogonalLoop=1;jettySize=auto;html=1;exitX=1;exitY=1;exitDx=0;exitDy=0;entryX=0;entryY=0;entryDx=0;entryDy=0;endArrow=none;endFill=0;" parent="1" source="-d3J0LfeknoKQkhsuHQo-16" target="-d3J0LfeknoKQkhsuHQo-6" edge="1">
          <mxGeometry relative="1" as="geometry" />
        </mxCell>
        <mxCell id="-d3J0LfeknoKQkhsuHQo-16" value="&lt;span style=&quot;font-size: 16px;&quot;&gt;&lt;b&gt;cantidad&lt;/b&gt;&lt;/span&gt;" style="ellipse;whiteSpace=wrap;html=1;align=center;strokeWidth=2;" parent="1" vertex="1">
          <mxGeometry x="890" y="680" width="120" height="40" as="geometry" />
        </mxCell>
        <mxCell id="-d3J0LfeknoKQkhsuHQo-17" value="&lt;span style=&quot;font-size: 16px;&quot;&gt;&lt;b&gt;proveedor&lt;/b&gt;&lt;/span&gt;" style="ellipse;whiteSpace=wrap;html=1;align=center;strokeWidth=2;" parent="1" vertex="1">
          <mxGeometry x="1200" y="670" width="120" height="40" as="geometry" />
        </mxCell>
        <mxCell id="-d3J0LfeknoKQkhsuHQo-18" value="&lt;span style=&quot;font-size: 16px;&quot;&gt;&lt;b&gt;fechaCad&lt;/b&gt;&lt;/span&gt;" style="ellipse;whiteSpace=wrap;html=1;align=center;strokeWidth=2;" parent="1" vertex="1">
          <mxGeometry x="1240" y="740" width="120" height="40" as="geometry" />
        </mxCell>
        <mxCell id="TdeLC3_kOeJKwItWiQyu-24" style="rounded=0;orthogonalLoop=1;jettySize=auto;html=1;exitX=1;exitY=0.5;exitDx=0;exitDy=0;entryX=0;entryY=0.5;entryDx=0;entryDy=0;endArrow=none;endFill=0;" parent="1" source="-d3J0LfeknoKQkhsuHQo-19" target="-d3J0LfeknoKQkhsuHQo-10" edge="1">
          <mxGeometry relative="1" as="geometry" />
        </mxCell>
        <mxCell id="-d3J0LfeknoKQkhsuHQo-19" value="&lt;span style=&quot;font-size: 16px;&quot;&gt;&lt;b&gt;tipoAlimento&lt;/b&gt;&lt;/span&gt;" style="ellipse;whiteSpace=wrap;html=1;align=center;strokeWidth=2;" parent="1" vertex="1">
          <mxGeometry x="660" y="1010" width="120" height="40" as="geometry" />
        </mxCell>
        <mxCell id="-d3J0LfeknoKQkhsuHQo-20" value="&lt;span style=&quot;font-size: 16px;&quot;&gt;&lt;b&gt;Lote&lt;/b&gt;&lt;/span&gt;" style="ellipse;whiteSpace=wrap;html=1;align=center;strokeWidth=2;" parent="1" vertex="1">
          <mxGeometry x="1410" y="1010" width="120" height="40" as="geometry" />
        </mxCell>
        <mxCell id="-d3J0LfeknoKQkhsuHQo-21" value="&lt;span style=&quot;font-size: 16px;&quot;&gt;&lt;b&gt;LabProcedencia&lt;/b&gt;&lt;/span&gt;" style="ellipse;whiteSpace=wrap;html=1;align=center;strokeWidth=2;" parent="1" vertex="1">
          <mxGeometry x="1390" y="940" width="150" height="40" as="geometry" />
        </mxCell>
        <mxCell id="-d3J0LfeknoKQkhsuHQo-25" value="" style="endArrow=none;html=1;rounded=0;exitX=0.5;exitY=1;exitDx=0;exitDy=0;entryX=0.75;entryY=0;entryDx=0;entryDy=0;" parent="1" source="-d3J0LfeknoKQkhsuHQo-14" target="-d3J0LfeknoKQkhsuHQo-6" edge="1">
          <mxGeometry width="50" height="50" relative="1" as="geometry">
            <mxPoint x="917" y="762" as="sourcePoint" />
            <mxPoint x="1050" y="790" as="targetPoint" />
          </mxGeometry>
        </mxCell>
        <mxCell id="-d3J0LfeknoKQkhsuHQo-26" value="" style="endArrow=none;html=1;rounded=0;exitX=0.047;exitY=0.765;exitDx=0;exitDy=0;entryX=1;entryY=0;entryDx=0;entryDy=0;exitPerimeter=0;" parent="1" source="-d3J0LfeknoKQkhsuHQo-17" target="-d3J0LfeknoKQkhsuHQo-6" edge="1">
          <mxGeometry width="50" height="50" relative="1" as="geometry">
            <mxPoint x="972" y="714" as="sourcePoint" />
            <mxPoint x="1067" y="776" as="targetPoint" />
          </mxGeometry>
        </mxCell>
        <mxCell id="-d3J0LfeknoKQkhsuHQo-27" value="" style="endArrow=none;html=1;rounded=0;exitX=0;exitY=0.5;exitDx=0;exitDy=0;entryX=1;entryY=0.5;entryDx=0;entryDy=0;" parent="1" source="-d3J0LfeknoKQkhsuHQo-18" target="-d3J0LfeknoKQkhsuHQo-6" edge="1">
          <mxGeometry width="50" height="50" relative="1" as="geometry">
            <mxPoint x="1216" y="711" as="sourcePoint" />
            <mxPoint x="1150" y="780" as="targetPoint" />
          </mxGeometry>
        </mxCell>
        <mxCell id="-d3J0LfeknoKQkhsuHQo-28" value="" style="endArrow=none;html=1;rounded=0;exitX=0.053;exitY=0.752;exitDx=0;exitDy=0;entryX=1;entryY=0.25;entryDx=0;entryDy=0;exitPerimeter=0;" parent="1" source="-d3J0LfeknoKQkhsuHQo-21" target="-d3J0LfeknoKQkhsuHQo-11" edge="1">
          <mxGeometry width="50" height="50" relative="1" as="geometry">
            <mxPoint x="1360" y="950" as="sourcePoint" />
            <mxPoint x="1260" y="980" as="targetPoint" />
          </mxGeometry>
        </mxCell>
        <mxCell id="-d3J0LfeknoKQkhsuHQo-29" value="" style="endArrow=none;html=1;rounded=0;exitX=0;exitY=0.5;exitDx=0;exitDy=0;entryX=1;entryY=0.5;entryDx=0;entryDy=0;" parent="1" source="-d3J0LfeknoKQkhsuHQo-20" target="-d3J0LfeknoKQkhsuHQo-11" edge="1">
          <mxGeometry width="50" height="50" relative="1" as="geometry">
            <mxPoint x="1370" y="960" as="sourcePoint" />
            <mxPoint x="1330" y="1030" as="targetPoint" />
          </mxGeometry>
        </mxCell>
        <mxCell id="-d3J0LfeknoKQkhsuHQo-31" value="&lt;font style=&quot;font-size: 16px;&quot;&gt;&lt;span&gt;Cliente&lt;/span&gt;&lt;/font&gt;" style="whiteSpace=wrap;html=1;align=center;strokeWidth=2;fontStyle=1" parent="1" vertex="1">
          <mxGeometry x="570" y="100" width="100" height="40" as="geometry" />
        </mxCell>
        <mxCell id="-d3J0LfeknoKQkhsuHQo-32" value="" style="endArrow=none;html=1;rounded=0;exitX=1;exitY=1;exitDx=0;exitDy=0;" parent="1" source="cc5oqjslnrZ3DRCShtl0-81" target="cc5oqjslnrZ3DRCShtl0-87" edge="1">
          <mxGeometry width="50" height="50" relative="1" as="geometry">
            <mxPoint x="441" y="1117" as="sourcePoint" />
            <mxPoint x="791" y="1107" as="targetPoint" />
          </mxGeometry>
        </mxCell>
        <mxCell id="-d3J0LfeknoKQkhsuHQo-33" value="" style="endArrow=none;html=1;rounded=0;exitX=0.75;exitY=1;exitDx=0;exitDy=0;entryX=0.5;entryY=0;entryDx=0;entryDy=0;" parent="1" source="cc5oqjslnrZ3DRCShtl0-81" target="cc5oqjslnrZ3DRCShtl0-86" edge="1">
          <mxGeometry width="50" height="50" relative="1" as="geometry">
            <mxPoint x="416" y="1117" as="sourcePoint" />
            <mxPoint x="679" y="1102" as="targetPoint" />
          </mxGeometry>
        </mxCell>
        <mxCell id="-d3J0LfeknoKQkhsuHQo-34" value="" style="endArrow=none;html=1;rounded=0;exitX=0.5;exitY=1;exitDx=0;exitDy=0;entryX=0.5;entryY=0;entryDx=0;entryDy=0;" parent="1" source="cc5oqjslnrZ3DRCShtl0-81" target="cc5oqjslnrZ3DRCShtl0-85" edge="1">
          <mxGeometry width="50" height="50" relative="1" as="geometry">
            <mxPoint x="391" y="1117" as="sourcePoint" />
            <mxPoint x="671" y="1057" as="targetPoint" />
          </mxGeometry>
        </mxCell>
        <mxCell id="-d3J0LfeknoKQkhsuHQo-35" value="" style="endArrow=none;html=1;rounded=0;exitX=0.18;exitY=1.075;exitDx=0;exitDy=0;entryX=0.564;entryY=0;entryDx=0;entryDy=0;exitPerimeter=0;entryPerimeter=0;" parent="1" source="cc5oqjslnrZ3DRCShtl0-81" target="cc5oqjslnrZ3DRCShtl0-84" edge="1">
          <mxGeometry width="50" height="50" relative="1" as="geometry">
            <mxPoint x="377" y="1113" as="sourcePoint" />
            <mxPoint x="677" y="1011" as="targetPoint" />
          </mxGeometry>
        </mxCell>
        <mxCell id="-d3J0LfeknoKQkhsuHQo-36" value="" style="endArrow=none;html=1;rounded=0;exitX=0;exitY=1;exitDx=0;exitDy=0;entryX=0.964;entryY=0.275;entryDx=0;entryDy=0;entryPerimeter=0;" parent="1" source="cc5oqjslnrZ3DRCShtl0-81" target="cc5oqjslnrZ3DRCShtl0-83" edge="1">
          <mxGeometry width="50" height="50" relative="1" as="geometry">
            <mxPoint x="357" y="1114" as="sourcePoint" />
            <mxPoint x="105" y="1177" as="targetPoint" />
          </mxGeometry>
        </mxCell>
        <mxCell id="-d3J0LfeknoKQkhsuHQo-37" value="" style="endArrow=none;html=1;rounded=0;exitX=1;exitY=0.5;exitDx=0;exitDy=0;entryX=0.07;entryY=0.3;entryDx=0;entryDy=0;entryPerimeter=0;" parent="1" source="cc5oqjslnrZ3DRCShtl0-81" target="cc5oqjslnrZ3DRCShtl0-82" edge="1">
          <mxGeometry width="50" height="50" relative="1" as="geometry">
            <mxPoint x="350" y="1120" as="sourcePoint" />
            <mxPoint x="548" y="979" as="targetPoint" />
          </mxGeometry>
        </mxCell>
        <mxCell id="-d3J0LfeknoKQkhsuHQo-40" value="&lt;font style=&quot;font-size: 16px;&quot;&gt;&lt;b&gt;NombreC&lt;/b&gt;&lt;/font&gt;" style="ellipse;whiteSpace=wrap;html=1;align=center;strokeWidth=2;" parent="1" vertex="1">
          <mxGeometry x="150" y="-472.93" width="100" height="40" as="geometry" />
        </mxCell>
        <mxCell id="-d3J0LfeknoKQkhsuHQo-41" value="&lt;font style=&quot;font-size: 16px;&quot;&gt;&lt;b&gt;Nombre&lt;/b&gt;&lt;/font&gt;" style="ellipse;whiteSpace=wrap;html=1;align=center;strokeWidth=2;" parent="1" vertex="1">
          <mxGeometry x="70" y="-582.93" width="100" height="40" as="geometry" />
        </mxCell>
        <mxCell id="-d3J0LfeknoKQkhsuHQo-42" value="&lt;font style=&quot;font-size: 16px;&quot;&gt;&lt;b&gt;ApellidoPat&lt;/b&gt;&lt;/font&gt;" style="ellipse;whiteSpace=wrap;html=1;align=center;strokeWidth=2;" parent="1" vertex="1">
          <mxGeometry x="190" y="-592.93" width="100" height="40" as="geometry" />
        </mxCell>
        <mxCell id="-d3J0LfeknoKQkhsuHQo-43" value="&lt;font style=&quot;font-size: 16px;&quot;&gt;&lt;b&gt;ApellidoMat&lt;/b&gt;&lt;/font&gt;" style="ellipse;whiteSpace=wrap;html=1;align=center;strokeWidth=2;" parent="1" vertex="1">
          <mxGeometry x="300" y="-592.93" width="100" height="40" as="geometry" />
        </mxCell>
        <mxCell id="-d3J0LfeknoKQkhsuHQo-44" value="" style="endArrow=none;html=1;rounded=0;exitX=0.93;exitY=0.213;exitDx=0;exitDy=0;entryX=0.69;entryY=1.05;entryDx=0;entryDy=0;exitPerimeter=0;strokeWidth=2;entryPerimeter=0;" parent="1" source="-d3J0LfeknoKQkhsuHQo-40" target="-d3J0LfeknoKQkhsuHQo-41" edge="1">
          <mxGeometry relative="1" as="geometry">
            <mxPoint x="230" y="-315.86" as="sourcePoint" />
            <mxPoint x="124.64466094067257" y="-581.717864376269" as="targetPoint" />
          </mxGeometry>
        </mxCell>
        <mxCell id="-d3J0LfeknoKQkhsuHQo-45" value="" style="endArrow=none;html=1;rounded=0;exitX=1;exitY=0.5;exitDx=0;exitDy=0;strokeWidth=2;entryX=0.5;entryY=1;entryDx=0;entryDy=0;" parent="1" source="-d3J0LfeknoKQkhsuHQo-40" target="-d3J0LfeknoKQkhsuHQo-42" edge="1">
          <mxGeometry relative="1" as="geometry">
            <mxPoint x="230" y="-315.86" as="sourcePoint" />
            <mxPoint x="220" y="-582.93" as="targetPoint" />
          </mxGeometry>
        </mxCell>
        <mxCell id="-d3J0LfeknoKQkhsuHQo-46" value="" style="endArrow=none;html=1;rounded=0;exitX=0.98;exitY=0.713;exitDx=0;exitDy=0;exitPerimeter=0;entryX=0.5;entryY=1;entryDx=0;entryDy=0;strokeWidth=2;" parent="1" source="-d3J0LfeknoKQkhsuHQo-40" target="-d3J0LfeknoKQkhsuHQo-43" edge="1">
          <mxGeometry relative="1" as="geometry">
            <mxPoint x="230" y="-315.86" as="sourcePoint" />
            <mxPoint x="344.64466094067257" y="-600.0021356237309" as="targetPoint" />
          </mxGeometry>
        </mxCell>
        <mxCell id="-d3J0LfeknoKQkhsuHQo-52" value="&lt;font style=&quot;font-size: 16px;&quot;&gt;&lt;span&gt;Animal&lt;/span&gt;&lt;/font&gt;" style="whiteSpace=wrap;html=1;align=center;strokeWidth=2;fontStyle=1" parent="1" vertex="1">
          <mxGeometry x="-495.20000000000005" y="1020" width="100" height="40" as="geometry" />
        </mxCell>
        <mxCell id="-d3J0LfeknoKQkhsuHQo-53" value="&lt;font style=&quot;font-size: 16px;&quot;&gt;&lt;span&gt;Evento&lt;/span&gt;&lt;/font&gt;" style="whiteSpace=wrap;html=1;align=center;strokeWidth=2;fontStyle=1" parent="1" vertex="1">
          <mxGeometry x="1079.5" y="100" width="100" height="40" as="geometry" />
        </mxCell>
        <mxCell id="-d3J0LfeknoKQkhsuHQo-54" value="&lt;u&gt;&lt;font style=&quot;font-size: 16px;&quot;&gt;&lt;b&gt;numJaula&lt;br&gt;&lt;/b&gt;&lt;/font&gt;&lt;/u&gt;" style="ellipse;whiteSpace=wrap;html=1;align=center;shadow=0;strokeColor=default;strokeWidth=2;fontFamily=Helvetica;fontSize=12;fontColor=default;fillColor=default;" parent="1" vertex="1">
          <mxGeometry x="-694.1" y="1100" width="110" height="40" as="geometry" />
        </mxCell>
        <mxCell id="-d3J0LfeknoKQkhsuHQo-55" value="&lt;font style=&quot;font-size: 16px;&quot;&gt;&lt;b&gt;nombre&lt;br&gt;&lt;/b&gt;&lt;/font&gt;" style="ellipse;whiteSpace=wrap;html=1;align=center;shadow=0;strokeColor=default;strokeWidth=2;fontFamily=Helvetica;fontSize=12;fontColor=default;fillColor=default;" parent="1" vertex="1">
          <mxGeometry x="-594.1" y="1130" width="110" height="40" as="geometry" />
        </mxCell>
        <mxCell id="-d3J0LfeknoKQkhsuHQo-56" value="&lt;font style=&quot;font-size: 16px;&quot;&gt;&lt;b&gt;especie&lt;br&gt;&lt;/b&gt;&lt;/font&gt;" style="ellipse;whiteSpace=wrap;html=1;align=center;shadow=0;strokeColor=default;strokeWidth=2;fontFamily=Helvetica;fontSize=12;fontColor=default;fillColor=default;" parent="1" vertex="1">
          <mxGeometry x="-724.1" y="980" width="110" height="40" as="geometry" />
        </mxCell>
        <mxCell id="-d3J0LfeknoKQkhsuHQo-57" value="&lt;font style=&quot;font-size: 16px;&quot;&gt;&lt;b&gt;peso&lt;br&gt;&lt;/b&gt;&lt;/font&gt;" style="ellipse;whiteSpace=wrap;html=1;align=center;shadow=0;strokeColor=default;strokeWidth=2;fontFamily=Helvetica;fontSize=12;fontColor=default;fillColor=default;" parent="1" vertex="1">
          <mxGeometry x="-274.1" y="1060" width="110" height="40" as="geometry" />
        </mxCell>
        <mxCell id="-d3J0LfeknoKQkhsuHQo-58" value="&lt;font style=&quot;font-size: 16px;&quot;&gt;&lt;b&gt;altura&lt;br&gt;&lt;/b&gt;&lt;/font&gt;" style="ellipse;whiteSpace=wrap;html=1;align=center;shadow=0;strokeColor=default;strokeWidth=2;fontFamily=Helvetica;fontSize=12;fontColor=default;fillColor=default;" parent="1" vertex="1">
          <mxGeometry x="-318.20000000000005" y="1115" width="110" height="40" as="geometry" />
        </mxCell>
        <mxCell id="-d3J0LfeknoKQkhsuHQo-59" value="&lt;font style=&quot;font-size: 16px;&quot;&gt;&lt;b&gt;sexo&lt;br&gt;&lt;/b&gt;&lt;/font&gt;" style="ellipse;whiteSpace=wrap;html=1;align=center;shadow=0;strokeColor=default;strokeWidth=2;fontFamily=Helvetica;fontSize=12;fontColor=default;fillColor=default;" parent="1" vertex="1">
          <mxGeometry x="-363.20000000000005" y="1180" width="110" height="40" as="geometry" />
        </mxCell>
        <mxCell id="-d3J0LfeknoKQkhsuHQo-61" value="&lt;font style=&quot;font-size: 16px;&quot;&gt;&lt;b&gt;alimentacion&lt;br&gt;&lt;/b&gt;&lt;/font&gt;" style="ellipse;whiteSpace=wrap;html=1;align=center;shadow=0;strokeColor=default;strokeWidth=2;fontFamily=Helvetica;fontSize=12;fontColor=default;fillColor=default;" parent="1" vertex="1">
          <mxGeometry x="-474.1" y="1130" width="110" height="40" as="geometry" />
        </mxCell>
        <mxCell id="-d3J0LfeknoKQkhsuHQo-62" value="&lt;font style=&quot;font-size: 16px;&quot;&gt;&lt;b&gt;indicacionMed&lt;br&gt;&lt;/b&gt;&lt;/font&gt;" style="ellipse;whiteSpace=wrap;html=1;align=center;shadow=0;strokeColor=default;strokeWidth=2;fontFamily=Helvetica;fontSize=12;fontColor=default;fillColor=default;" parent="1" vertex="1">
          <mxGeometry x="-744.1" y="1036" width="130" height="40" as="geometry" />
        </mxCell>
        <mxCell id="-d3J0LfeknoKQkhsuHQo-63" value="" style="endArrow=none;html=1;rounded=0;entryX=1;entryY=0.5;entryDx=0;entryDy=0;exitX=0;exitY=0.75;exitDx=0;exitDy=0;" parent="1" source="-d3J0LfeknoKQkhsuHQo-52" target="-d3J0LfeknoKQkhsuHQo-62" edge="1">
          <mxGeometry width="50" height="50" relative="1" as="geometry">
            <mxPoint x="-243.2" y="980" as="sourcePoint" />
            <mxPoint x="-193.2" y="930" as="targetPoint" />
          </mxGeometry>
        </mxCell>
        <mxCell id="-d3J0LfeknoKQkhsuHQo-67" value="" style="endArrow=none;html=1;rounded=0;entryX=0.5;entryY=0;entryDx=0;entryDy=0;exitX=0.25;exitY=1;exitDx=0;exitDy=0;" parent="1" source="-d3J0LfeknoKQkhsuHQo-52" target="-d3J0LfeknoKQkhsuHQo-54" edge="1">
          <mxGeometry width="50" height="50" relative="1" as="geometry">
            <mxPoint x="-442.20000000000005" y="1028" as="sourcePoint" />
            <mxPoint x="-468.20000000000005" y="1000" as="targetPoint" />
          </mxGeometry>
        </mxCell>
        <mxCell id="-d3J0LfeknoKQkhsuHQo-68" value="" style="endArrow=none;html=1;rounded=0;entryX=0.5;entryY=0;entryDx=0;entryDy=0;exitX=0.5;exitY=1;exitDx=0;exitDy=0;" parent="1" source="-d3J0LfeknoKQkhsuHQo-52" target="-d3J0LfeknoKQkhsuHQo-55" edge="1">
          <mxGeometry width="50" height="50" relative="1" as="geometry">
            <mxPoint x="-410.20000000000005" y="1030" as="sourcePoint" />
            <mxPoint x="-347.20000000000005" y="969" as="targetPoint" />
          </mxGeometry>
        </mxCell>
        <mxCell id="-d3J0LfeknoKQkhsuHQo-69" value="" style="endArrow=none;html=1;rounded=0;entryX=1;entryY=0.5;entryDx=0;entryDy=0;exitX=0;exitY=0.25;exitDx=0;exitDy=0;" parent="1" source="-d3J0LfeknoKQkhsuHQo-52" target="-d3J0LfeknoKQkhsuHQo-56" edge="1">
          <mxGeometry width="50" height="50" relative="1" as="geometry">
            <mxPoint x="-385.20000000000005" y="1030" as="sourcePoint" />
            <mxPoint x="-263.2" y="980" as="targetPoint" />
          </mxGeometry>
        </mxCell>
        <mxCell id="-d3J0LfeknoKQkhsuHQo-70" value="" style="endArrow=none;html=1;rounded=0;entryX=0.073;entryY=0.167;entryDx=0;entryDy=0;entryPerimeter=0;exitX=1;exitY=0.75;exitDx=0;exitDy=0;" parent="1" source="-d3J0LfeknoKQkhsuHQo-52" target="-d3J0LfeknoKQkhsuHQo-57" edge="1">
          <mxGeometry width="50" height="50" relative="1" as="geometry">
            <mxPoint x="-354.1" y="1060" as="sourcePoint" />
            <mxPoint x="-233.2" y="1025" as="targetPoint" />
          </mxGeometry>
        </mxCell>
        <mxCell id="-d3J0LfeknoKQkhsuHQo-71" value="" style="endArrow=none;html=1;rounded=0;entryX=0.182;entryY=0;entryDx=0;entryDy=0;entryPerimeter=0;exitX=1;exitY=1;exitDx=0;exitDy=0;" parent="1" source="-d3J0LfeknoKQkhsuHQo-52" target="-d3J0LfeknoKQkhsuHQo-58" edge="1">
          <mxGeometry width="50" height="50" relative="1" as="geometry">
            <mxPoint x="-393.20000000000005" y="1050" as="sourcePoint" />
            <mxPoint x="-235.2" y="1067" as="targetPoint" />
          </mxGeometry>
        </mxCell>
        <mxCell id="-d3J0LfeknoKQkhsuHQo-72" value="" style="endArrow=none;html=1;rounded=0;entryX=0.358;entryY=0.067;entryDx=0;entryDy=0;entryPerimeter=0;exitX=0.887;exitY=1.083;exitDx=0;exitDy=0;exitPerimeter=0;" parent="1" source="-d3J0LfeknoKQkhsuHQo-52" target="-d3J0LfeknoKQkhsuHQo-59" edge="1">
          <mxGeometry width="50" height="50" relative="1" as="geometry">
            <mxPoint x="-383.20000000000005" y="1060" as="sourcePoint" />
            <mxPoint x="-273.20000000000005" y="1110" as="targetPoint" />
          </mxGeometry>
        </mxCell>
        <mxCell id="-d3J0LfeknoKQkhsuHQo-73" value="" style="endArrow=none;html=1;rounded=0;entryX=0.5;entryY=0;entryDx=0;entryDy=0;exitX=0.593;exitY=0.983;exitDx=0;exitDy=0;exitPerimeter=0;" parent="1" source="-d3J0LfeknoKQkhsuHQo-52" target="-d3J0LfeknoKQkhsuHQo-61" edge="1">
          <mxGeometry width="50" height="50" relative="1" as="geometry">
            <mxPoint x="-396.20000000000005" y="1073" as="sourcePoint" />
            <mxPoint x="-294.20000000000005" y="1163" as="targetPoint" />
          </mxGeometry>
        </mxCell>
        <mxCell id="-d3J0LfeknoKQkhsuHQo-74" value="&lt;font style=&quot;font-size: 16px;&quot;&gt;&lt;b&gt;fecha&lt;br&gt;&lt;/b&gt;&lt;/font&gt;" style="ellipse;whiteSpace=wrap;html=1;align=center;shadow=0;strokeColor=default;strokeWidth=2;fontFamily=Helvetica;fontSize=12;fontColor=default;fillColor=default;" parent="1" vertex="1">
          <mxGeometry x="890" y="5" width="110" height="40" as="geometry" />
        </mxCell>
        <mxCell id="-d3J0LfeknoKQkhsuHQo-75" value="&lt;font style=&quot;font-size: 16px;&quot;&gt;&lt;b&gt;tipoEvento&lt;br&gt;&lt;/b&gt;&lt;/font&gt;" style="ellipse;whiteSpace=wrap;html=1;align=center;shadow=0;strokeColor=default;strokeWidth=2;fontFamily=Helvetica;fontSize=12;fontColor=default;fillColor=default;" parent="1" vertex="1">
          <mxGeometry x="1000" y="-35" width="110" height="40" as="geometry" />
        </mxCell>
        <mxCell id="-d3J0LfeknoKQkhsuHQo-76" value="&lt;font style=&quot;font-size: 16px;&quot;&gt;&lt;b&gt;capacidad&lt;br&gt;&lt;/b&gt;&lt;/font&gt;" style="ellipse;whiteSpace=wrap;html=1;align=center;shadow=0;strokeColor=default;strokeWidth=2;fontFamily=Helvetica;fontSize=12;fontColor=default;fillColor=default;" parent="1" vertex="1">
          <mxGeometry x="1130" y="-35" width="110" height="40" as="geometry" />
        </mxCell>
        <mxCell id="-d3J0LfeknoKQkhsuHQo-77" value="&lt;font style=&quot;font-size: 16px;&quot;&gt;&lt;b&gt;listaAsistentes&lt;br&gt;&lt;/b&gt;&lt;/font&gt;" style="ellipse;whiteSpace=wrap;html=1;align=center;shadow=0;strokeColor=default;strokeWidth=2;fontFamily=Helvetica;fontSize=12;fontColor=default;fillColor=default;" parent="1" vertex="1">
          <mxGeometry x="1220" y="60" width="130" height="40" as="geometry" />
        </mxCell>
        <mxCell id="-d3J0LfeknoKQkhsuHQo-78" value="" style="endArrow=none;html=1;rounded=0;exitX=1;exitY=0.5;exitDx=0;exitDy=0;entryX=0;entryY=0;entryDx=0;entryDy=0;" parent="1" source="-d3J0LfeknoKQkhsuHQo-74" target="-d3J0LfeknoKQkhsuHQo-53" edge="1">
          <mxGeometry width="50" height="50" relative="1" as="geometry">
            <mxPoint x="1230" y="-15" as="sourcePoint" />
            <mxPoint x="1280" y="-65" as="targetPoint" />
          </mxGeometry>
        </mxCell>
        <mxCell id="-d3J0LfeknoKQkhsuHQo-79" value="" style="endArrow=none;html=1;rounded=0;exitX=1;exitY=0.5;exitDx=0;exitDy=0;entryX=0;entryY=0.5;entryDx=0;entryDy=0;" parent="1" source="-d3J0LfeknoKQkhsuHQo-53" target="-d3J0LfeknoKQkhsuHQo-77" edge="1">
          <mxGeometry width="50" height="50" relative="1" as="geometry">
            <mxPoint x="1010" y="105" as="sourcePoint" />
            <mxPoint x="1070" y="95" as="targetPoint" />
          </mxGeometry>
        </mxCell>
        <mxCell id="-d3J0LfeknoKQkhsuHQo-81" value="" style="endArrow=none;html=1;rounded=0;" parent="1" source="-d3J0LfeknoKQkhsuHQo-76" target="-d3J0LfeknoKQkhsuHQo-53" edge="1">
          <mxGeometry width="50" height="50" relative="1" as="geometry">
            <mxPoint x="1061" y="156" as="sourcePoint" />
            <mxPoint x="1080" y="115" as="targetPoint" />
          </mxGeometry>
        </mxCell>
        <mxCell id="TdeLC3_kOeJKwItWiQyu-32" style="edgeStyle=orthogonalEdgeStyle;rounded=0;orthogonalLoop=1;jettySize=auto;html=1;exitX=0.5;exitY=0;exitDx=0;exitDy=0;entryX=0.75;entryY=1;entryDx=0;entryDy=0;" parent="1" source="-d3J0LfeknoKQkhsuHQo-83" target="cc5oqjslnrZ3DRCShtl0-51" edge="1">
          <mxGeometry relative="1" as="geometry" />
        </mxCell>
        <mxCell id="TdeLC3_kOeJKwItWiQyu-36" style="edgeStyle=orthogonalEdgeStyle;rounded=0;orthogonalLoop=1;jettySize=auto;html=1;exitX=1;exitY=0.5;exitDx=0;exitDy=0;entryX=0;entryY=0;entryDx=0;entryDy=0;" parent="1" source="-d3J0LfeknoKQkhsuHQo-83" target="cc5oqjslnrZ3DRCShtl0-81" edge="1">
          <mxGeometry relative="1" as="geometry">
            <Array as="points">
              <mxPoint x="-70" y="960" />
              <mxPoint x="275" y="960" />
            </Array>
          </mxGeometry>
        </mxCell>
        <mxCell id="-d3J0LfeknoKQkhsuHQo-83" value="&lt;span style=&quot;font-size: 18px;&quot;&gt;&lt;b&gt;Trabajar&lt;/b&gt;&lt;/span&gt;" style="rhombus;whiteSpace=wrap;html=1;" parent="1" vertex="1">
          <mxGeometry x="-220" y="790" width="150" height="50" as="geometry" />
        </mxCell>
        <mxCell id="TdeLC3_kOeJKwItWiQyu-39" style="edgeStyle=orthogonalEdgeStyle;rounded=0;orthogonalLoop=1;jettySize=auto;html=1;exitX=0.5;exitY=0;exitDx=0;exitDy=0;entryX=0.25;entryY=1;entryDx=0;entryDy=0;endArrow=classic;endFill=1;" parent="1" source="-d3J0LfeknoKQkhsuHQo-84" target="cc5oqjslnrZ3DRCShtl0-52" edge="1">
          <mxGeometry relative="1" as="geometry" />
        </mxCell>
        <mxCell id="TdeLC3_kOeJKwItWiQyu-43" style="edgeStyle=orthogonalEdgeStyle;rounded=0;orthogonalLoop=1;jettySize=auto;html=1;exitX=0.5;exitY=1;exitDx=0;exitDy=0;entryX=0.75;entryY=0;entryDx=0;entryDy=0;shape=flexArrow;" parent="1" source="-d3J0LfeknoKQkhsuHQo-84" target="-d3J0LfeknoKQkhsuHQo-52" edge="1">
          <mxGeometry relative="1" as="geometry" />
        </mxCell>
        <mxCell id="-d3J0LfeknoKQkhsuHQo-84" value="&lt;font size=&quot;1&quot;&gt;&lt;b style=&quot;font-size: 18px;&quot;&gt;Cuidar&lt;/b&gt;&lt;/font&gt;" style="rhombus;whiteSpace=wrap;html=1;" parent="1" vertex="1">
          <mxGeometry x="15.900000000000006" y="750" width="150" height="50" as="geometry" />
        </mxCell>
        <mxCell id="TdeLC3_kOeJKwItWiQyu-37" style="edgeStyle=orthogonalEdgeStyle;rounded=0;orthogonalLoop=1;jettySize=auto;html=1;exitX=1;exitY=0.5;exitDx=0;exitDy=0;entryX=0;entryY=0.5;entryDx=0;entryDy=0;shape=flexArrow;" parent="1" source="huwh_n98xhKvYkgfeiNL-1" target="cc5oqjslnrZ3DRCShtl0-81" edge="1">
          <mxGeometry relative="1" as="geometry" />
        </mxCell>
        <mxCell id="TdeLC3_kOeJKwItWiQyu-48" style="edgeStyle=orthogonalEdgeStyle;rounded=0;orthogonalLoop=1;jettySize=auto;html=1;exitX=0;exitY=0.5;exitDx=0;exitDy=0;entryX=1;entryY=0.25;entryDx=0;entryDy=0;shape=link;" parent="1" source="huwh_n98xhKvYkgfeiNL-1" target="-d3J0LfeknoKQkhsuHQo-52" edge="1">
          <mxGeometry relative="1" as="geometry">
            <Array as="points">
              <mxPoint x="-94" y="1030" />
            </Array>
          </mxGeometry>
        </mxCell>
        <mxCell id="huwh_n98xhKvYkgfeiNL-1" value="&lt;span style=&quot;font-size: 18px;&quot;&gt;&lt;b&gt;Pertenecer&lt;/b&gt;&lt;/span&gt;" style="rhombus;whiteSpace=wrap;html=1;" parent="1" vertex="1">
          <mxGeometry x="-94.1" y="1035" width="150" height="50" as="geometry" />
        </mxCell>
        <mxCell id="TdeLC3_kOeJKwItWiQyu-40" style="edgeStyle=orthogonalEdgeStyle;rounded=0;orthogonalLoop=1;jettySize=auto;html=1;exitX=0.5;exitY=0;exitDx=0;exitDy=0;entryX=0.75;entryY=1;entryDx=0;entryDy=0;endArrow=none;endFill=0;" parent="1" source="huwh_n98xhKvYkgfeiNL-4" target="cc5oqjslnrZ3DRCShtl0-52" edge="1">
          <mxGeometry relative="1" as="geometry" />
        </mxCell>
        <mxCell id="huwh_n98xhKvYkgfeiNL-4" value="&lt;font size=&quot;1&quot;&gt;&lt;b style=&quot;font-size: 18px;&quot;&gt;Laborar&lt;/b&gt;&lt;/font&gt;" style="rhombus;whiteSpace=wrap;html=1;" parent="1" vertex="1">
          <mxGeometry x="205.9" y="750" width="150" height="50" as="geometry" />
        </mxCell>
        <mxCell id="TdeLC3_kOeJKwItWiQyu-44" style="edgeStyle=orthogonalEdgeStyle;rounded=0;orthogonalLoop=1;jettySize=auto;html=1;exitX=0;exitY=0.5;exitDx=0;exitDy=0;entryX=1;entryY=0.25;entryDx=0;entryDy=0;endArrow=none;endFill=0;" parent="1" source="huwh_n98xhKvYkgfeiNL-7" target="cc5oqjslnrZ3DRCShtl0-81" edge="1">
          <mxGeometry relative="1" as="geometry" />
        </mxCell>
        <mxCell id="huwh_n98xhKvYkgfeiNL-7" value="&lt;span style=&quot;font-size: 18px;&quot;&gt;&lt;b&gt;Distribuir&lt;/b&gt;&lt;/span&gt;" style="rhombus;whiteSpace=wrap;html=1;" parent="1" vertex="1">
          <mxGeometry x="575" y="870" width="150" height="50" as="geometry" />
        </mxCell>
        <mxCell id="huwh_n98xhKvYkgfeiNL-8" value="" style="endArrow=none;html=1;rounded=0;entryX=0;entryY=0.5;entryDx=0;entryDy=0;exitX=1;exitY=0.5;exitDx=0;exitDy=0;startArrow=none;startFill=0;endFill=0;edgeStyle=orthogonalEdgeStyle;" parent="1" source="huwh_n98xhKvYkgfeiNL-7" target="-d3J0LfeknoKQkhsuHQo-6" edge="1">
          <mxGeometry width="50" height="50" relative="1" as="geometry">
            <mxPoint x="1490" y="1250" as="sourcePoint" />
            <mxPoint x="1540" y="1200" as="targetPoint" />
          </mxGeometry>
        </mxCell>
        <mxCell id="TdeLC3_kOeJKwItWiQyu-33" style="edgeStyle=orthogonalEdgeStyle;rounded=0;orthogonalLoop=1;jettySize=auto;html=1;exitX=0.5;exitY=0;exitDx=0;exitDy=0;entryX=0.25;entryY=1;entryDx=0;entryDy=0;shape=flexArrow;" parent="1" source="maE8RR4jbbAmRZyhBtNp-1" target="cc5oqjslnrZ3DRCShtl0-51" edge="1">
          <mxGeometry relative="1" as="geometry" />
        </mxCell>
        <mxCell id="TdeLC3_kOeJKwItWiQyu-35" style="edgeStyle=orthogonalEdgeStyle;rounded=0;orthogonalLoop=1;jettySize=auto;html=1;exitX=0.5;exitY=1;exitDx=0;exitDy=0;entryX=0.182;entryY=-0.025;entryDx=0;entryDy=0;entryPerimeter=0;" parent="1" source="maE8RR4jbbAmRZyhBtNp-1" target="-d3J0LfeknoKQkhsuHQo-52" edge="1">
          <mxGeometry relative="1" as="geometry">
            <Array as="points">
              <mxPoint x="-314" y="860" />
              <mxPoint x="-477" y="860" />
            </Array>
          </mxGeometry>
        </mxCell>
        <mxCell id="maE8RR4jbbAmRZyhBtNp-1" value="&lt;span style=&quot;font-size: 18px;&quot;&gt;&lt;b&gt;Atender&lt;/b&gt;&lt;/span&gt;" style="rhombus;whiteSpace=wrap;html=1;" parent="1" vertex="1">
          <mxGeometry x="-389.1" y="760" width="150" height="50" as="geometry" />
        </mxCell>
        <mxCell id="maE8RR4jbbAmRZyhBtNp-5" value="&lt;span style=&quot;font-size: 16px;&quot;&gt;&lt;b&gt;mismoBioma&lt;/b&gt;&lt;/span&gt;" style="ellipse;whiteSpace=wrap;html=1;align=center;strokeWidth=2;" parent="1" vertex="1">
          <mxGeometry x="-599.1" y="770" width="120" height="40" as="geometry" />
        </mxCell>
        <mxCell id="maE8RR4jbbAmRZyhBtNp-7" value="" style="endArrow=none;html=1;rounded=0;entryX=0;entryY=0.5;entryDx=0;entryDy=0;exitX=1;exitY=0.5;exitDx=0;exitDy=0;" parent="1" source="maE8RR4jbbAmRZyhBtNp-5" target="maE8RR4jbbAmRZyhBtNp-1" edge="1">
          <mxGeometry width="50" height="50" relative="1" as="geometry">
            <mxPoint x="780.9" y="830" as="sourcePoint" />
            <mxPoint x="830.9" y="780" as="targetPoint" />
          </mxGeometry>
        </mxCell>
        <mxCell id="maE8RR4jbbAmRZyhBtNp-8" value="" style="endArrow=none;html=1;rounded=0;exitX=0.5;exitY=1;exitDx=0;exitDy=0;entryX=0.25;entryY=0;entryDx=0;entryDy=0;" parent="1" source="-d3J0LfeknoKQkhsuHQo-75" target="-d3J0LfeknoKQkhsuHQo-53" edge="1">
          <mxGeometry width="50" height="50" relative="1" as="geometry">
            <mxPoint x="1181" y="14" as="sourcePoint" />
            <mxPoint x="1135" y="75" as="targetPoint" />
          </mxGeometry>
        </mxCell>
        <mxCell id="fioEPVJvo6Oif7lgc-Ir-8" value="&lt;font style=&quot;font-size: 16px;&quot;&gt;&lt;b&gt;Telefono&lt;/b&gt;&lt;/font&gt;" style="ellipse;shape=doubleEllipse;margin=3;whiteSpace=wrap;html=1;align=center;shadow=0;strokeColor=default;strokeWidth=2;fontFamily=Helvetica;fontSize=12;fontColor=default;fillColor=default;" parent="1" vertex="1">
          <mxGeometry x="370" y="-485.86" width="100" height="40" as="geometry" />
        </mxCell>
        <mxCell id="fioEPVJvo6Oif7lgc-Ir-9" value="&lt;font style=&quot;font-size: 16px;&quot;&gt;&lt;b&gt;Correo&lt;/b&gt;&lt;/font&gt;" style="ellipse;shape=doubleEllipse;margin=3;whiteSpace=wrap;html=1;align=center;shadow=0;strokeColor=default;strokeWidth=2;fontFamily=Helvetica;fontSize=12;fontColor=default;fillColor=default;" parent="1" vertex="1">
          <mxGeometry x="420" y="-405.86" width="100" height="40" as="geometry" />
        </mxCell>
        <mxCell id="fioEPVJvo6Oif7lgc-Ir-13" value="" style="endArrow=none;html=1;rounded=0;entryX=1;entryY=1;entryDx=0;entryDy=0;strokeWidth=2;exitX=0;exitY=0;exitDx=0;exitDy=0;" parent="1" source="fioEPVJvo6Oif7lgc-Ir-15" target="-d3J0LfeknoKQkhsuHQo-40" edge="1">
          <mxGeometry relative="1" as="geometry">
            <mxPoint x="249" y="-395.86" as="sourcePoint" />
            <mxPoint x="249" y="-485.86" as="targetPoint" />
          </mxGeometry>
        </mxCell>
        <mxCell id="fioEPVJvo6Oif7lgc-Ir-15" value="&lt;font style=&quot;font-size: 16px;&quot;&gt;&lt;span&gt;Persona&lt;/span&gt;&lt;/font&gt;" style="whiteSpace=wrap;html=1;align=center;strokeWidth=2;fontStyle=1" parent="1" vertex="1">
          <mxGeometry x="274" y="-392.93" width="100" height="47.07" as="geometry" />
        </mxCell>
        <mxCell id="fioEPVJvo6Oif7lgc-Ir-16" value="" style="endArrow=none;html=1;rounded=0;entryX=0.36;entryY=0.975;entryDx=0;entryDy=0;strokeWidth=2;exitX=1;exitY=0;exitDx=0;exitDy=0;entryPerimeter=0;" parent="1" source="fioEPVJvo6Oif7lgc-Ir-15" target="fioEPVJvo6Oif7lgc-Ir-8" edge="1">
          <mxGeometry relative="1" as="geometry">
            <mxPoint x="369" y="-390.86" as="sourcePoint" />
            <mxPoint x="270" y="-476.86" as="targetPoint" />
          </mxGeometry>
        </mxCell>
        <mxCell id="fioEPVJvo6Oif7lgc-Ir-17" value="" style="endArrow=none;html=1;rounded=0;strokeWidth=2;exitX=1;exitY=0.5;exitDx=0;exitDy=0;entryX=0;entryY=0.5;entryDx=0;entryDy=0;" parent="1" source="fioEPVJvo6Oif7lgc-Ir-15" target="fioEPVJvo6Oif7lgc-Ir-9" edge="1">
          <mxGeometry relative="1" as="geometry">
            <mxPoint x="380" y="-360.86" as="sourcePoint" />
            <mxPoint x="410" y="-365.86" as="targetPoint" />
          </mxGeometry>
        </mxCell>
        <mxCell id="fioEPVJvo6Oif7lgc-Ir-20" value="" style="shape=link;html=1;rounded=0;entryX=0.5;entryY=1;entryDx=0;entryDy=0;exitX=0;exitY=0.5;exitDx=0;exitDy=0;" parent="1" source="fioEPVJvo6Oif7lgc-Ir-22" target="fioEPVJvo6Oif7lgc-Ir-15" edge="1">
          <mxGeometry relative="1" as="geometry">
            <mxPoint x="324.0779184454583" y="-240" as="sourcePoint" />
            <mxPoint x="340" y="-282.93" as="targetPoint" />
          </mxGeometry>
        </mxCell>
        <mxCell id="fioEPVJvo6Oif7lgc-Ir-22" value="&lt;b&gt;O&lt;/b&gt;" style="triangle;whiteSpace=wrap;html=1;shadow=0;strokeColor=default;strokeWidth=2;fontFamily=Helvetica;fontSize=12;fontColor=default;fillColor=default;rotation=90;" parent="1" vertex="1">
          <mxGeometry x="295.9" y="-240" width="60" height="80" as="geometry" />
        </mxCell>
        <mxCell id="TdeLC3_kOeJKwItWiQyu-22" style="rounded=0;orthogonalLoop=1;jettySize=auto;html=1;exitX=1;exitY=0.5;exitDx=0;exitDy=0;entryX=0;entryY=0.5;entryDx=0;entryDy=0;endArrow=none;endFill=0;" parent="1" source="TdeLC3_kOeJKwItWiQyu-21" target="fioEPVJvo6Oif7lgc-Ir-15" edge="1">
          <mxGeometry relative="1" as="geometry" />
        </mxCell>
        <mxCell id="TdeLC3_kOeJKwItWiQyu-21" value="&lt;span style=&quot;font-size: 16px;&quot;&gt;&lt;b&gt;Genero&lt;/b&gt;&lt;/span&gt;" style="ellipse;whiteSpace=wrap;html=1;align=center;strokeWidth=2;" parent="1" vertex="1">
          <mxGeometry x="80" y="-417.93" width="100" height="40" as="geometry" />
        </mxCell>
        <mxCell id="fioEPVJvo6Oif7lgc-Ir-27" value="" style="endArrow=none;html=1;rounded=0;strokeWidth=2;exitX=0.6;exitY=0;exitDx=0;exitDy=0;exitPerimeter=0;" parent="1" source="cc5oqjslnrZ3DRCShtl0-1" target="fioEPVJvo6Oif7lgc-Ir-22" edge="1">
          <mxGeometry relative="1" as="geometry">
            <mxPoint x="-33" y="-146.5" as="sourcePoint" />
            <mxPoint x="160" y="-120" as="targetPoint" />
          </mxGeometry>
        </mxCell>
        <mxCell id="fioEPVJvo6Oif7lgc-Ir-30" value="" style="endArrow=none;html=1;rounded=0;strokeWidth=2;exitX=0;exitY=0.5;exitDx=0;exitDy=0;" parent="1" source="-d3J0LfeknoKQkhsuHQo-31" target="fioEPVJvo6Oif7lgc-Ir-22" edge="1">
          <mxGeometry relative="1" as="geometry">
            <mxPoint x="391" y="190.5" as="sourcePoint" />
            <mxPoint x="520" y="-150.5" as="targetPoint" />
          </mxGeometry>
        </mxCell>
        <mxCell id="fioEPVJvo6Oif7lgc-Ir-31" value="" style="endArrow=none;html=1;rounded=0;entryX=0.5;entryY=1;entryDx=0;entryDy=0;strokeWidth=2;elbow=vertical;exitX=1;exitY=0;exitDx=0;exitDy=0;" parent="1" source="fioEPVJvo6Oif7lgc-Ir-32" target="-d3J0LfeknoKQkhsuHQo-31" edge="1">
          <mxGeometry relative="1" as="geometry">
            <mxPoint x="620" y="230" as="sourcePoint" />
            <mxPoint x="657" y="174" as="targetPoint" />
          </mxGeometry>
        </mxCell>
        <mxCell id="fioEPVJvo6Oif7lgc-Ir-32" value="&lt;font style=&quot;font-size: 16px;&quot;&gt;&lt;b&gt;&lt;u&gt;Idcliente&lt;/u&gt;&lt;/b&gt;&lt;/font&gt;" style="ellipse;whiteSpace=wrap;html=1;align=center;strokeWidth=2;" parent="1" vertex="1">
          <mxGeometry x="480" y="190" width="100" height="40" as="geometry" />
        </mxCell>
        <mxCell id="fioEPVJvo6Oif7lgc-Ir-39" value="&lt;font style=&quot;font-size: 16px;&quot;&gt;&lt;b&gt;promocion&lt;br&gt;&lt;/b&gt;&lt;/font&gt;" style="ellipse;whiteSpace=wrap;html=1;align=center;shadow=0;strokeColor=default;strokeWidth=2;fontFamily=Helvetica;fontSize=12;fontColor=default;fillColor=default;" parent="1" vertex="1">
          <mxGeometry x="710" y="190" width="110" height="40" as="geometry" />
        </mxCell>
        <mxCell id="fioEPVJvo6Oif7lgc-Ir-40" value="&lt;font style=&quot;font-size: 16px;&quot;&gt;&lt;b&gt;tiposServicio&lt;br&gt;&lt;/b&gt;&lt;/font&gt;" style="ellipse;whiteSpace=wrap;html=1;align=center;shadow=0;strokeColor=default;strokeWidth=2;fontFamily=Helvetica;fontSize=12;fontColor=default;fillColor=default;" parent="1" vertex="1">
          <mxGeometry x="850" y="-245" width="110" height="40" as="geometry" />
        </mxCell>
        <mxCell id="fioEPVJvo6Oif7lgc-Ir-41" value="&lt;font style=&quot;font-size: 16px;&quot;&gt;&lt;b&gt;fecha&lt;br&gt;&lt;/b&gt;&lt;/font&gt;" style="ellipse;whiteSpace=wrap;html=1;align=center;shadow=0;strokeColor=default;strokeWidth=2;fontFamily=Helvetica;fontSize=12;fontColor=default;fillColor=default;" parent="1" vertex="1">
          <mxGeometry x="890" y="-180" width="110" height="40" as="geometry" />
        </mxCell>
        <mxCell id="fioEPVJvo6Oif7lgc-Ir-42" value="&lt;font style=&quot;font-size: 16px;&quot;&gt;&lt;b&gt;&lt;u&gt;NumTicket&lt;/u&gt;&lt;/b&gt;&lt;/font&gt;" style="ellipse;whiteSpace=wrap;html=1;align=center;strokeWidth=2;" parent="1" vertex="1">
          <mxGeometry x="560" y="-260" width="100" height="40" as="geometry" />
        </mxCell>
        <mxCell id="fioEPVJvo6Oif7lgc-Ir-43" style="rounded=0;orthogonalLoop=1;jettySize=auto;html=1;exitX=1;exitY=0.5;exitDx=0;exitDy=0;entryX=0;entryY=0.75;entryDx=0;entryDy=0;endArrow=none;endFill=0;entryPerimeter=0;" parent="1" target="fioEPVJvo6Oif7lgc-Ir-40" edge="1">
          <mxGeometry relative="1" as="geometry">
            <mxPoint x="929.5" y="-70" as="targetPoint" />
            <mxPoint x="755" y="-120" as="sourcePoint" />
          </mxGeometry>
        </mxCell>
        <mxCell id="fioEPVJvo6Oif7lgc-Ir-44" value="&lt;font style=&quot;font-size: 16px;&quot;&gt;&lt;b&gt;costoTotal&lt;br&gt;&lt;/b&gt;&lt;/font&gt;" style="ellipse;whiteSpace=wrap;html=1;align=center;shadow=0;strokeColor=default;strokeWidth=2;fontFamily=Helvetica;fontSize=12;fontColor=default;fillColor=default;" parent="1" vertex="1">
          <mxGeometry x="730" y="-260" width="110" height="40" as="geometry" />
        </mxCell>
        <mxCell id="fioEPVJvo6Oif7lgc-Ir-45" value="&lt;b&gt;CostoUnitario&lt;/b&gt;" style="ellipse;whiteSpace=wrap;html=1;align=center;dashed=1;" parent="1" vertex="1">
          <mxGeometry x="875.5" y="-110" width="100" height="40" as="geometry" />
        </mxCell>
        <mxCell id="fioEPVJvo6Oif7lgc-Ir-46" style="edgeStyle=orthogonalEdgeStyle;rounded=0;orthogonalLoop=1;jettySize=auto;html=1;exitX=0.5;exitY=1;exitDx=0;exitDy=0;" parent="1" target="-d3J0LfeknoKQkhsuHQo-31" edge="1">
          <mxGeometry relative="1" as="geometry">
            <mxPoint x="620" y="20" as="sourcePoint" />
            <mxPoint x="595" y="70" as="targetPoint" />
          </mxGeometry>
        </mxCell>
        <mxCell id="fioEPVJvo6Oif7lgc-Ir-49" style="rounded=0;orthogonalLoop=1;jettySize=auto;html=1;entryX=0;entryY=0.25;entryDx=0;entryDy=0;endArrow=none;endFill=0;entryPerimeter=0;" parent="1" target="fioEPVJvo6Oif7lgc-Ir-41" edge="1">
          <mxGeometry relative="1" as="geometry">
            <mxPoint x="845" y="-160" as="targetPoint" />
            <mxPoint x="750" y="-100" as="sourcePoint" />
          </mxGeometry>
        </mxCell>
        <mxCell id="fioEPVJvo6Oif7lgc-Ir-50" style="rounded=0;orthogonalLoop=1;jettySize=auto;html=1;exitX=0.452;exitY=-0.025;exitDx=0;exitDy=0;entryX=0.364;entryY=1;entryDx=0;entryDy=0;endArrow=none;endFill=0;entryPerimeter=0;exitPerimeter=0;" parent="1" target="fioEPVJvo6Oif7lgc-Ir-44" edge="1">
          <mxGeometry relative="1" as="geometry">
            <mxPoint x="695" y="-220" as="targetPoint" />
            <mxPoint x="681.02" y="-141" as="sourcePoint" />
          </mxGeometry>
        </mxCell>
        <mxCell id="fioEPVJvo6Oif7lgc-Ir-51" style="rounded=0;orthogonalLoop=1;jettySize=auto;html=1;entryX=0.28;entryY=0.025;entryDx=0;entryDy=0;endArrow=none;endFill=0;entryPerimeter=0;exitX=0.704;exitY=1;exitDx=0;exitDy=0;exitPerimeter=0;" parent="1" target="fioEPVJvo6Oif7lgc-Ir-45" edge="1">
          <mxGeometry relative="1" as="geometry">
            <mxPoint x="790" y="-70" as="targetPoint" />
            <mxPoint x="715.04" y="-100" as="sourcePoint" />
          </mxGeometry>
        </mxCell>
        <mxCell id="fioEPVJvo6Oif7lgc-Ir-53" value="&lt;span style=&quot;font-size: 18px;&quot;&gt;&lt;b&gt;Notificar&lt;/b&gt;&lt;/span&gt;" style="rhombus;whiteSpace=wrap;html=1;" parent="1" vertex="1">
          <mxGeometry x="780" y="95" width="130" height="50" as="geometry" />
        </mxCell>
        <mxCell id="fioEPVJvo6Oif7lgc-Ir-56" style="rounded=0;orthogonalLoop=1;jettySize=auto;html=1;exitX=1;exitY=0.5;exitDx=0;exitDy=0;entryX=0;entryY=0.5;entryDx=0;entryDy=0;endArrow=none;endFill=0;" parent="1" source="-d3J0LfeknoKQkhsuHQo-31" target="fioEPVJvo6Oif7lgc-Ir-53" edge="1">
          <mxGeometry relative="1" as="geometry">
            <mxPoint x="811" y="100" as="targetPoint" />
            <mxPoint x="660" y="125" as="sourcePoint" />
          </mxGeometry>
        </mxCell>
        <mxCell id="TdeLC3_kOeJKwItWiQyu-41" style="edgeStyle=orthogonalEdgeStyle;rounded=0;orthogonalLoop=1;jettySize=auto;html=1;exitX=0.5;exitY=1;exitDx=0;exitDy=0;entryX=0.65;entryY=0.05;entryDx=0;entryDy=0;entryPerimeter=0;" parent="1" source="huwh_n98xhKvYkgfeiNL-4" target="cc5oqjslnrZ3DRCShtl0-81" edge="1">
          <mxGeometry relative="1" as="geometry">
            <Array as="points">
              <mxPoint x="281" y="890" />
              <mxPoint x="340" y="890" />
            </Array>
          </mxGeometry>
        </mxCell>
        <mxCell id="fioEPVJvo6Oif7lgc-Ir-59" value="&lt;font style=&quot;font-size: 16px;&quot;&gt;&lt;b&gt;descuento&lt;br&gt;&lt;/b&gt;&lt;/font&gt;" style="ellipse;whiteSpace=wrap;html=1;align=center;shadow=0;strokeColor=default;strokeWidth=2;fontFamily=Helvetica;fontSize=12;fontColor=default;fillColor=default;" parent="1" vertex="1">
          <mxGeometry x="870.5" y="190" width="110" height="40" as="geometry" />
        </mxCell>
        <mxCell id="fioEPVJvo6Oif7lgc-Ir-62" style="rounded=0;orthogonalLoop=1;jettySize=auto;html=1;exitX=0.564;exitY=0.05;exitDx=0;exitDy=0;entryX=0.408;entryY=0.9;entryDx=0;entryDy=0;endArrow=none;endFill=0;entryPerimeter=0;exitPerimeter=0;" parent="1" source="fioEPVJvo6Oif7lgc-Ir-39" target="fioEPVJvo6Oif7lgc-Ir-53" edge="1">
          <mxGeometry relative="1" as="geometry">
            <mxPoint x="780" y="155" as="targetPoint" />
            <mxPoint x="670" y="150" as="sourcePoint" />
          </mxGeometry>
        </mxCell>
        <mxCell id="fioEPVJvo6Oif7lgc-Ir-63" style="rounded=0;orthogonalLoop=1;jettySize=auto;html=1;endArrow=none;endFill=0;entryX=0.7;entryY=0.78;entryDx=0;entryDy=0;entryPerimeter=0;" parent="1" target="fioEPVJvo6Oif7lgc-Ir-53" edge="1">
          <mxGeometry relative="1" as="geometry">
            <mxPoint x="890" y="170" as="targetPoint" />
            <mxPoint x="913" y="192" as="sourcePoint" />
          </mxGeometry>
        </mxCell>
        <mxCell id="fioEPVJvo6Oif7lgc-Ir-64" value="" style="shape=link;html=1;rounded=0;exitX=1;exitY=0.5;exitDx=0;exitDy=0;entryX=0;entryY=0.5;entryDx=0;entryDy=0;" parent="1" source="fioEPVJvo6Oif7lgc-Ir-53" target="-d3J0LfeknoKQkhsuHQo-53" edge="1">
          <mxGeometry relative="1" as="geometry">
            <mxPoint x="920" y="139" as="sourcePoint" />
            <mxPoint x="1080" y="139" as="targetPoint" />
          </mxGeometry>
        </mxCell>
        <mxCell id="fioEPVJvo6Oif7lgc-Ir-66" value="&lt;font style=&quot;font-size: 16px;&quot;&gt;&lt;b&gt;&lt;u&gt;IdEvento&lt;/u&gt;&lt;br&gt;&lt;/b&gt;&lt;/font&gt;" style="ellipse;whiteSpace=wrap;html=1;align=center;shadow=0;strokeColor=default;strokeWidth=2;fontFamily=Helvetica;fontSize=12;fontColor=default;fillColor=default;" parent="1" vertex="1">
          <mxGeometry x="1219.5" y="170" width="110" height="40" as="geometry" />
        </mxCell>
        <mxCell id="fioEPVJvo6Oif7lgc-Ir-67" value="" style="endArrow=none;html=1;rounded=0;exitX=0.75;exitY=1;exitDx=0;exitDy=0;entryX=0.309;entryY=0.025;entryDx=0;entryDy=0;entryPerimeter=0;" parent="1" source="-d3J0LfeknoKQkhsuHQo-53" target="fioEPVJvo6Oif7lgc-Ir-66" edge="1">
          <mxGeometry width="50" height="50" relative="1" as="geometry">
            <mxPoint x="1160.5" y="165" as="sourcePoint" />
            <mxPoint x="1209.5" y="260" as="targetPoint" />
          </mxGeometry>
        </mxCell>
        <mxCell id="fioEPVJvo6Oif7lgc-Ir-68" value="&lt;span style=&quot;font-size: 16px;&quot;&gt;Ticket&lt;/span&gt;" style="whiteSpace=wrap;html=1;align=center;strokeWidth=2;fontStyle=1" parent="1" vertex="1">
          <mxGeometry x="660" y="-140" width="100" height="40" as="geometry" />
        </mxCell>
        <mxCell id="TdeLC3_kOeJKwItWiQyu-50" style="rounded=0;orthogonalLoop=1;jettySize=auto;html=1;exitX=0;exitY=0.5;exitDx=0;exitDy=0;entryX=1;entryY=0.75;entryDx=0;entryDy=0;endArrow=none;endFill=0;" parent="1" source="TdeLC3_kOeJKwItWiQyu-49" target="-d3J0LfeknoKQkhsuHQo-6" edge="1">
          <mxGeometry relative="1" as="geometry" />
        </mxCell>
        <mxCell id="TdeLC3_kOeJKwItWiQyu-49" value="&lt;b&gt;&lt;font style=&quot;font-size: 16px;&quot;&gt;&lt;u&gt;Idinsumo&lt;/u&gt;&lt;/font&gt;&lt;/b&gt;" style="ellipse;whiteSpace=wrap;html=1;align=center;strokeWidth=2;" parent="1" vertex="1">
          <mxGeometry x="1230" y="800" width="120" height="40" as="geometry" />
        </mxCell>
        <mxCell id="roZmmaQ8vLZ8YoXT2cP6-1" value="&lt;font style=&quot;font-size: 16px;&quot;&gt;&lt;b&gt;noti_evento&lt;br&gt;&lt;/b&gt;&lt;/font&gt;" style="ellipse;whiteSpace=wrap;html=1;align=center;shadow=0;strokeColor=default;strokeWidth=2;fontFamily=Helvetica;fontSize=12;fontColor=default;fillColor=default;" parent="1" vertex="1">
          <mxGeometry x="790" y="240" width="110" height="40" as="geometry" />
        </mxCell>
        <mxCell id="fioEPVJvo6Oif7lgc-Ir-69" style="rounded=0;orthogonalLoop=1;jettySize=auto;html=1;entryX=0.94;entryY=0.8;entryDx=0;entryDy=0;endArrow=none;endFill=0;entryPerimeter=0;exitX=0;exitY=0.25;exitDx=0;exitDy=0;" parent="1" source="fioEPVJvo6Oif7lgc-Ir-68" target="fioEPVJvo6Oif7lgc-Ir-42" edge="1">
          <mxGeometry relative="1" as="geometry">
            <mxPoint x="624.49" y="-189" as="targetPoint" />
            <mxPoint x="650" y="-130" as="sourcePoint" />
          </mxGeometry>
        </mxCell>
        <mxCell id="roZmmaQ8vLZ8YoXT2cP6-2" style="rounded=0;orthogonalLoop=1;jettySize=auto;html=1;endArrow=none;endFill=0;entryX=0.5;entryY=1;entryDx=0;entryDy=0;exitX=0.5;exitY=0;exitDx=0;exitDy=0;" parent="1" source="roZmmaQ8vLZ8YoXT2cP6-1" target="fioEPVJvo6Oif7lgc-Ir-53" edge="1">
          <mxGeometry relative="1" as="geometry">
            <mxPoint x="881" y="149" as="targetPoint" />
            <mxPoint x="922" y="212" as="sourcePoint" />
          </mxGeometry>
        </mxCell>
        <mxCell id="fioEPVJvo6Oif7lgc-Ir-71" value="&lt;span style=&quot;border-bottom: 1px dotted&quot;&gt;&lt;b&gt;idCliente&lt;/b&gt;&lt;/span&gt;" style="ellipse;whiteSpace=wrap;html=1;align=center;" parent="1" vertex="1">
          <mxGeometry x="780" y="-60" width="100" height="30" as="geometry" />
        </mxCell>
        <mxCell id="fioEPVJvo6Oif7lgc-Ir-73" style="rounded=0;orthogonalLoop=1;jettySize=auto;html=1;entryX=0.42;entryY=-0.033;entryDx=0;entryDy=0;endArrow=none;endFill=0;entryPerimeter=0;exitX=0.62;exitY=1;exitDx=0;exitDy=0;exitPerimeter=0;" parent="1" source="fioEPVJvo6Oif7lgc-Ir-68" target="fioEPVJvo6Oif7lgc-Ir-71" edge="1">
          <mxGeometry relative="1" as="geometry">
            <mxPoint x="900" y="-70" as="targetPoint" />
            <mxPoint x="711.04" y="-61" as="sourcePoint" />
          </mxGeometry>
        </mxCell>
        <mxCell id="fioEPVJvo6Oif7lgc-Ir-75" value="&lt;font style=&quot;font-size: 16px;&quot;&gt;&lt;b&gt;descuento&lt;br&gt;&lt;/b&gt;&lt;/font&gt;" style="ellipse;whiteSpace=wrap;html=1;align=center;shadow=0;strokeColor=default;strokeWidth=2;fontFamily=Helvetica;fontSize=12;fontColor=default;fillColor=default;" parent="1" vertex="1">
          <mxGeometry x="510" y="-130" width="110" height="40" as="geometry" />
        </mxCell>
        <mxCell id="fioEPVJvo6Oif7lgc-Ir-76" style="rounded=0;orthogonalLoop=1;jettySize=auto;html=1;endArrow=none;endFill=0;exitX=0;exitY=0.5;exitDx=0;exitDy=0;" parent="1" source="fioEPVJvo6Oif7lgc-Ir-68" target="fioEPVJvo6Oif7lgc-Ir-75" edge="1">
          <mxGeometry relative="1" as="geometry">
            <mxPoint x="630" y="-208" as="targetPoint" />
            <mxPoint x="636" y="-110" as="sourcePoint" />
          </mxGeometry>
        </mxCell>
        <mxCell id="fioEPVJvo6Oif7lgc-Ir-78" value="" style="shape=link;html=1;rounded=0;entryX=0.25;entryY=1;entryDx=0;entryDy=0;exitX=0.5;exitY=0;exitDx=0;exitDy=0;" parent="1" target="fioEPVJvo6Oif7lgc-Ir-68" edge="1">
          <mxGeometry relative="1" as="geometry">
            <mxPoint x="620" y="-30" as="sourcePoint" />
            <mxPoint x="640" y="-60" as="targetPoint" />
          </mxGeometry>
        </mxCell>
        <mxCell id="CCVpfl_Kz8rF-1x_p7pF-3" style="edgeStyle=orthogonalEdgeStyle;rounded=0;orthogonalLoop=1;jettySize=auto;html=1;exitX=1;exitY=0.5;exitDx=0;exitDy=0;entryX=0;entryY=0.25;entryDx=0;entryDy=0;shape=link;" parent="1" source="CCVpfl_Kz8rF-1x_p7pF-1" target="-d3J0LfeknoKQkhsuHQo-6" edge="1">
          <mxGeometry relative="1" as="geometry" />
        </mxCell>
        <mxCell id="CCVpfl_Kz8rF-1x_p7pF-1" value="&lt;span style=&quot;font-size: 18px;&quot;&gt;&lt;b&gt;Proveer&lt;/b&gt;&lt;/span&gt;" style="rhombus;whiteSpace=wrap;html=1;" parent="1" vertex="1">
          <mxGeometry x="575" y="720" width="150" height="50" as="geometry" />
        </mxCell>
        <mxCell id="CCVpfl_Kz8rF-1x_p7pF-4" value="Asignar" style="shape=rhombus;double=1;perimeter=rhombusPerimeter;whiteSpace=wrap;html=1;align=center;fontSize=21;" parent="1" vertex="1">
          <mxGeometry x="560" y="-35" width="120" height="60" as="geometry" />
        </mxCell>
      </root>
    </mxGraphModel>
  </diagram>
</mxfile>
